<svg fill="#FFFFFF" clip-rule="evenodd" fill-rule="evenodd" height="512" image-rendering="optimizeQuality" shape-rendering="geometricPrecision" text-rendering="geometricPrecision" viewBox="0 0 1706.66 1706.66" width="512" xmlns="http://www.w3.org/2000/svg" xmlns:xodm="http://www.corel.com/coreldraw/odm/2003"><g id="Layer_x0020_1"><path d="m878.05 1472.36c-3.53 0-7.07-.93-10.21-2.8-327.8-194.56-447.44-438.76-490.07-609.34-46.37-185.48-14.99-323.26-13.63-329.04 1.92-8.1 8.64-14.18 16.91-15.25 416.07-53.93 477.13-264.68 477.7-266.79 5.24-19.55 33.22-19.78 38.63 0 .57 2.03 64.25 213.2 477.71 266.79 8.25 1.07 14.98 7.15 16.89 15.26 1.37 5.78 32.74 143.54-13.63 329.04-42.64 170.58-162.29 414.77-490.07 609.33-3.15 1.87-6.69 2.8-10.22 2.8zm119.88-632.13-263.49-.01v.01c-6.08 0-11.22 5.14-11.22 11.22v252.28c0 6.08 5.14 11.2 11.22 11.2h287.23c6.09 0 11.22-5.12 11.22-11.2v-252.28c0-14.51-19.6-11.51-34.96-11.21zm-20-40.01v-108.59c0-55.08-44.8-99.89-99.87-99.89s-99.87 44.8-99.87 99.89v108.59zm-239.74 0v-108.59c0-77.14 62.75-139.89 139.87-139.89 77.14 0 139.89 62.75 139.89 139.89v108.59c32.31 0 54.94 21.75 54.94 51.22v252.27c.02 28.25-22.99 51.22-51.22 51.22h-287.23c-28.24 0-51.22-22.97-51.22-51.22v-252.27c0-29.47 22.61-51.22 54.97-51.22z"/><path d="m1261.36 154.41c-101.59 0-101.61-154.39 0-154.39 101.63 0 101.6 154.39 0 154.39z"/><path d="m494.75 1706.64c-101.61 0-101.6-154.4 0-154.4 101.58 0 101.61 154.4 0 154.4z"/><path d="m186.71 671.47c-101.59 0-101.6-154.39 0-154.39 101.61 0 101.6 154.39 0 154.39z"/><path d="m914.72 113.88v173.78c0 48.24-73.34 48.25-73.34-.02v-210.43c0-20.24 16.43-36.66 36.67-36.66h326.11c48.29 0 48.28 73.33 0 73.33zm-73.34 1478.91v-140.44c0-48.29 73.33-48.28 73.33 0v177.11c0 20.24-16.43 36.66-36.67 36.66h-326.11c-48.28 0-48.28-73.33 0-73.33h289.44zm-618.01-651.87h214.64c48.28 0 48.28 73.33 0 73.33h-251.3c-20.23 0-36.66-16.44-36.66-36.67v-326.11c0-48.29 73.33-48.29 73.33 0v289.44zm1259.9 73.33h-165.17c-48.29 0-48.28-73.33 0-73.33h201.83c20.23 0 36.66 16.43 36.66 36.67v326.1c0 48.27-73.33 48.26-73.33 0v-289.44z"/><path d="m1519.94 1438.09c-101.61 0-101.62-154.41 0-154.41 101.61 0 101.61 154.41 0 154.41z"/></g></svg>