<svg fill="#FFFFFF" id="Layer_1" enable-background="new 0 0 65 65" viewBox="0 0 65 65" xmlns="http://www.w3.org/2000/svg"><g><g><g><g><g><g><path d="m64.5 31.9c0 6.5-5.3 11.9-11.9 11.9h-2.6c-2.5-7.7-9.7-13.2-18.2-13.2s-15.7 5.5-18.1 13.2h-1.3c-6.5 0-11.9-5.3-11.9-11.9 0-5.9 4.3-10.7 9.9-11.7.2-4.2 1.6-8.3 4.2-11.6 6.9-8.9 19.6-10.5 28.4-3.7 4.8 3.7 7.6 9.3 7.8 15.2.6-.1 1.2-.1 1.8-.1 6.6 0 11.9 5.3 11.9 11.9z"/></g></g></g></g></g><g><path d="m48.2 60.9c0 1.1-.9 2-2 2h-7.2c-1.1 0-2-.9-2-2v-7.2c0-1.1.9-2 2-2s2 .9 2 2v2.1c1.2-1.8 1.9-4 1.9-6.2 0-6.1-5-11.1-11.1-11.1s-11.1 5-11.1 11.1c0 5.1 3.5 9.5 8.4 10.8 1.1.3 1.7 1.3 1.5 2.4-.2.9-1 1.5-1.9 1.5-.2 0-.3 0-.5-.1-6.7-1.7-11.4-7.7-11.4-14.6 0-8.3 6.8-15.1 15.1-15.1s15.1 6.8 15.1 15.1c0 3.4-1.2 6.7-3.2 9.3h2.5c1 0 1.9.9 1.9 2z"/></g></g></svg>