<svg fill="#FFFFFF" fill="#FFFFFF" id="Layer_1" enable-background="new 0 0 512 512" height="512" viewBox="0 0 512 512" width="512" xmlns="http://www.w3.org/2000/svg"><path clip-rule="evenodd" d="m101.1 364.602h42.08c2.051 0 3.723 1.672 3.723 3.723v57.338c0 2.051-1.672 3.723-3.723 3.723h-42.08c-2.051 0-3.723-1.672-3.723-3.723v-57.338c0-2.052 1.672-3.723 3.723-3.723zm-60.002-312.393h-30.098v445.305h485.447v-30.1h-455.349zm409.847-16.516c27.645 0 50.055 22.41 50.055 50.055 0 27.643-22.41 50.053-50.055 50.053-27.643 0-50.053-22.41-50.053-50.053.001-27.644 22.411-50.055 50.053-50.055zm-219.203 130.301c27.643 0 50.053 22.41 50.053 50.055 0 27.643-22.41 50.053-50.053 50.053-27.645 0-50.055-22.41-50.055-50.053.001-27.645 22.411-50.055 50.055-50.055zm108.705-114.25-213.988 123.545c-4.291 2.486-9.783 1.021-12.27-3.27-2.484-4.289-1.021-9.783 3.27-12.268l213.998-123.552-19.68-3.896c-4.873-.951-8.053-5.674-7.102-10.547s5.674-8.053 10.547-7.102l43.148 8.543c5.529 1.08 8.68 6.898 6.652 12.102l-14.041 41.246c-1.592 4.697-6.693 7.217-11.391 5.625-4.699-1.592-7.217-6.693-5.625-11.391zm-117.158 132.613c.088-4.893 4.082-8.834 8.998-8.834 4.928 0 8.928 3.959 8.998 8.869 3.93 1.447 7.408 4.031 9.867 7.43 2.912 4.02 2.014 9.637-2.004 12.551-4.02 2.912-9.639 2.014-12.551-2.004-.619-.857-1.367-1.258-2.426-1.258h-3.768c-1.615 0-2.969 1.355-2.969 2.969 0 1.615 1.354 2.969 2.969 2.969h2.674c11.551 0 20.969 9.418 20.969 20.969 0 8.842-5.584 16.723-13.854 19.721-.088 4.895-4.082 8.836-8.998 8.836-4.926 0-8.928-3.959-8.998-8.869-3.953-1.457-7.393-4.045-9.865-7.465-2.893-4.02-1.98-9.623 2.039-12.516 4.018-2.893 9.621-1.98 12.514 2.039.598.824 1.416 1.221 2.428 1.221h3.766c1.615 0 2.969-1.354 2.969-2.967 0-1.615-1.354-2.969-2.969-2.969h-2.674c-11.551 0-20.969-9.418-20.969-20.969.001-8.842 5.585-16.725 13.854-19.723zm-101.15 46.788c27.645 0 50.055 22.41 50.055 50.055 0 27.643-22.41 50.053-50.055 50.053-27.643 0-50.053-22.41-50.053-50.053 0-27.645 22.41-50.055 50.053-50.055zm-8.451 18.365c.088-4.895 4.082-8.836 8.998-8.836 4.926 0 8.928 3.959 8.998 8.869 3.955 1.457 7.391 4.043 9.865 7.465 2.893 4.02 1.98 9.623-2.039 12.516-4.018 2.893-9.621 1.98-12.516-2.039-.596-.824-1.414-1.221-2.426-1.221h-3.768c-1.613 0-2.967 1.352-2.967 2.967s1.354 2.969 2.967 2.969h2.676c11.551 0 20.969 9.418 20.969 20.969 0 8.842-5.584 16.723-13.854 19.721-.09 4.895-4.084 8.836-8.998 8.836-4.928 0-8.928-3.959-8.998-8.869-3.926-1.445-7.412-4.035-9.867-7.43-2.912-4.02-2.016-9.639 2.004-12.551s9.639-2.016 12.551 2.004c.619.857 1.367 1.256 2.426 1.256h3.768c1.615 0 2.969-1.354 2.969-2.967 0-1.615-1.354-2.969-2.969-2.969h-2.676c-11.551 0-20.967-9.418-20.967-20.969 0-8.842 5.584-16.723 13.854-19.721zm227.656-148.666c27.645 0 50.055 22.41 50.055 50.055 0 27.643-22.41 50.053-50.055 50.053s-50.053-22.41-50.053-50.053c0-27.645 22.408-50.055 50.053-50.055zm-8.451 18.363c.088-4.895 4.082-8.834 8.998-8.834 4.926 0 8.928 3.959 8.998 8.869 3.928 1.447 7.408 4.031 9.865 7.43 2.912 4.018 2.016 9.637-2.004 12.549-4.02 2.914-9.639 2.016-12.551-2.002-.619-.857-1.365-1.258-2.426-1.258h-3.768c-1.615 0-2.967 1.354-2.967 2.969s1.354 2.969 2.967 2.969h2.676c11.551 0 20.967 9.416 20.967 20.967 0 8.842-5.582 16.725-13.852 19.723-.088 4.895-4.084 8.836-8.998 8.836-4.928 0-8.928-3.959-9-8.869-3.926-1.445-7.41-4.035-9.865-7.43-2.912-4.02-2.016-9.639 2.004-12.551s9.639-2.016 12.551 2.004c.619.855 1.367 1.256 2.426 1.256h3.768c1.615 0 2.967-1.354 2.967-2.969 0-1.613-1.352-2.967-2.967-2.967h-2.676c-11.549 0-20.967-9.418-20.967-20.969 0-8.842 5.584-16.725 13.854-19.723zm109.601-65.15c.088-4.895 4.082-8.836 8.998-8.836 4.928 0 8.928 3.959 8.998 8.869 3.928 1.447 7.408 4.033 9.867 7.432 2.912 4.018 2.014 9.637-2.004 12.549-4.02 2.912-9.639 2.016-12.551-2.004-.619-.855-1.367-1.256-2.426-1.256h-3.768c-1.615 0-2.969 1.354-2.969 2.969 0 1.613 1.354 2.969 2.969 2.969h2.674c11.551 0 20.969 9.418 20.969 20.967 0 8.842-5.584 16.725-13.854 19.723-.088 4.895-4.082 8.836-8.998 8.836-4.926 0-8.928-3.959-8.998-8.869-3.926-1.445-7.41-4.035-9.867-7.43-2.912-4.02-2.014-9.639 2.004-12.551 4.02-2.912 9.639-2.016 12.551 2.004.619.855 1.367 1.256 2.426 1.256h3.768c1.615 0 2.969-1.354 2.969-2.969 0-1.613-1.354-2.967-2.969-2.967h-2.674c-11.551 0-20.969-9.418-20.969-20.969.001-8.842 5.585-16.725 13.854-19.723zm-12.588 115.091h42.08c2.051 0 3.723 1.672 3.723 3.723v252.791c0 2.051-1.672 3.723-3.723 3.723h-42.08c-2.051 0-3.723-1.672-3.723-3.723v-252.791c.001-2.051 1.672-3.723 3.723-3.723zm-109.601 65.151h42.08c2.049 0 3.723 1.674 3.723 3.723v187.641c0 2.051-1.674 3.723-3.723 3.723-14.027 0-28.055 0-42.08 0-2.051 0-3.723-1.672-3.723-3.723 0-62.547 0-125.094 0-187.641 0-2.049 1.672-3.723 3.723-3.723zm-109.604 65.15h42.08c2.051 0 3.723 1.674 3.723 3.723v122.49c0 2.051-1.672 3.723-3.723 3.723-14.025 0-28.053 0-42.08 0-2.049 0-3.723-1.672-3.723-3.723 0-40.83 0-81.66 0-122.49.001-2.049 1.674-3.723 3.723-3.723z" fill-rule="evenodd"/></svg>