<?xml version="1.0" encoding="UTF-8"?>
<svg id="Layer_1" xmlns="http://www.w3.org/2000/svg" version="1.1" viewBox="0 0 512 512">
  <!-- Generator: Adobe Illustrator 30.4.0, SVG Export Plug-In . SVG Version: 2.1.4 Build 226)  -->
  <defs>
    <style>
      .st0 {
        fill: #fff;
        fill-rule: evenodd;
      }
    </style>
  </defs>
  <path class="st0" d="M101.1,364.6h42.1c2.1,0,3.7,1.7,3.7,3.7v57.3c0,2.1-1.7,3.7-3.7,3.7h-42.1c-2.1,0-3.7-1.7-3.7-3.7v-57.3c0-2.1,1.7-3.7,3.7-3.7ZM41.1,52.2H11v445.3h485.4v-30.1H41.1V52.2ZM450.9,35.7c27.6,0,50.1,22.4,50.1,50.1s-22.4,50.1-50.1,50.1-50.1-22.4-50.1-50.1c0-27.6,22.4-50.1,50.1-50.1ZM231.7,166c27.6,0,50.1,22.4,50.1,50.1s-22.4,50.1-50.1,50.1-50.1-22.4-50.1-50.1c0-27.6,22.4-50.1,50.1-50.1ZM340.4,51.7l-214,123.5c-4.3,2.5-9.8,1-12.3-3.3-2.5-4.3-1-9.8,3.3-12.3l214-123.6-19.7-3.9c-4.9-1-8.1-5.7-7.1-10.5s5.7-8.1,10.5-7.1l43.1,8.5c5.5,1.1,8.7,6.9,6.7,12.1l-14,41.2c-1.6,4.7-6.7,7.2-11.4,5.6-4.7-1.6-7.2-6.7-5.6-11.4l6.5-19ZM223.3,184.4c0-4.9,4.1-8.8,9-8.8s8.9,4,9,8.9c3.9,1.4,7.4,4,9.9,7.4,2.9,4,2,9.6-2,12.6-4,2.9-9.6,2-12.6-2-.6-.9-1.4-1.3-2.4-1.3h-3.8c-1.6,0-3,1.4-3,3s1.4,3,3,3h2.7c11.6,0,21,9.4,21,21s-5.6,16.7-13.9,19.7c0,4.9-4.1,8.8-9,8.8s-8.9-4-9-8.9c-4-1.5-7.4-4-9.9-7.5-2.9-4-2-9.6,2-12.5,4-2.9,9.6-2,12.5,2,.6.8,1.4,1.2,2.4,1.2h3.8c1.6,0,3-1.4,3-3s-1.4-3-3-3h-2.7c-11.6,0-21-9.4-21-21,0-8.8,5.6-16.7,13.9-19.7h0ZM122.1,231.1c27.6,0,50.1,22.4,50.1,50.1s-22.4,50.1-50.1,50.1-50.1-22.4-50.1-50.1,22.4-50.1,50.1-50.1ZM113.7,249.5c0-4.9,4.1-8.8,9-8.8s8.9,4,9,8.9c4,1.5,7.4,4,9.9,7.5,2.9,4,2,9.6-2,12.5-4,2.9-9.6,2-12.5-2-.6-.8-1.4-1.2-2.4-1.2h-3.8c-1.6,0-3,1.4-3,3s1.4,3,3,3h2.7c11.6,0,21,9.4,21,21s-5.6,16.7-13.9,19.7c0,4.9-4.1,8.8-9,8.8s-8.9-4-9-8.9c-3.9-1.4-7.4-4-9.9-7.4-2.9-4-2-9.6,2-12.6s9.6-2,12.6,2c.6.9,1.4,1.3,2.4,1.3h3.8c1.6,0,3-1.4,3-3s-1.4-3-3-3h-2.7c-11.6,0-21-9.4-21-21s5.6-16.7,13.9-19.7h0ZM341.3,100.8c27.6,0,50.1,22.4,50.1,50.1s-22.4,50.1-50.1,50.1-50.1-22.4-50.1-50.1,22.4-50.1,50.1-50.1ZM332.9,119.2c0-4.9,4.1-8.8,9-8.8s8.9,4,9,8.9c3.9,1.4,7.4,4,9.9,7.4,2.9,4,2,9.6-2,12.5-4,2.9-9.6,2-12.6-2-.6-.9-1.4-1.3-2.4-1.3h-3.8c-1.6,0-3,1.4-3,3s1.4,3,3,3h2.7c11.6,0,21,9.4,21,21s-5.6,16.7-13.9,19.7c0,4.9-4.1,8.8-9,8.8s-8.9-4-9-8.9c-3.9-1.4-7.4-4-9.9-7.4-2.9-4-2-9.6,2-12.6s9.6-2,12.6,2c.6.9,1.4,1.3,2.4,1.3h3.8c1.6,0,3-1.4,3-3s-1.4-3-3-3h-2.7c-11.5,0-21-9.4-21-21s5.6-16.7,13.9-19.7h0ZM442.5,54.1c0-4.9,4.1-8.8,9-8.8s8.9,4,9,8.9c3.9,1.4,7.4,4,9.9,7.4,2.9,4,2,9.6-2,12.5-4,2.9-9.6,2-12.6-2-.6-.9-1.4-1.3-2.4-1.3h-3.8c-1.6,0-3,1.4-3,3s1.4,3,3,3h2.7c11.6,0,21,9.4,21,21s-5.6,16.7-13.9,19.7c0,4.9-4.1,8.8-9,8.8s-8.9-4-9-8.9c-3.9-1.4-7.4-4-9.9-7.4-2.9-4-2-9.6,2-12.6,4-2.9,9.6-2,12.6,2,.6.9,1.4,1.3,2.4,1.3h3.8c1.6,0,3-1.4,3-3s-1.4-3-3-3h-2.7c-11.6,0-21-9.4-21-21,0-8.8,5.6-16.7,13.9-19.7ZM429.9,169.1h42.1c2.1,0,3.7,1.7,3.7,3.7v252.8c0,2.1-1.7,3.7-3.7,3.7h-42.1c-2.1,0-3.7-1.7-3.7-3.7v-252.8c0-2.1,1.7-3.7,3.7-3.7h0ZM320.3,234.3h42.1c2,0,3.7,1.7,3.7,3.7v187.6c0,2.1-1.7,3.7-3.7,3.7h-42.1c-2.1,0-3.7-1.7-3.7-3.7v-187.6c0-2,1.7-3.7,3.7-3.7h0ZM210.7,299.4h42.1c2.1,0,3.7,1.7,3.7,3.7v122.5c0,2.1-1.7,3.7-3.7,3.7h-42.1c-2,0-3.7-1.7-3.7-3.7v-122.5c0-2,1.7-3.7,3.7-3.7Z"/>
</svg>