<svg id="Bahan_copy_2" height="512" viewBox="0 0 64 64" width="512" xmlns="http://www.w3.org/2000/svg" data-name="Bahan copy 2"><g fill="#FFFFFF"><path d="m56.08 11.65h-5.67c-.00562 1.15451.004 3.89474 0 5.08h1.64a1.97388 1.97388 0 0 1 1.97 1.97v21.91a1.96535 1.96535 0 0 1 -1.97 1.96h-40.1a1.96535 1.96535 0 0 1 -1.97-1.96v-21.91a1.97388 1.97388 0 0 1 1.97-1.97h1.64c.01039-1.146-.00749-3.9384 0-5.08h-5.67a2.932 2.932 0 0 0 -2.93 2.92v30.16a2.93409 2.93409 0 0 0 2.93 2.93h19.227v7.40149l-7.64746 3.00788a1.00025 1.00025 0 0 0 .73247 1.86129c.00694.0009 10.01851-3.9404 10.01851-3.9404 1.704-.78036 3.62369-.01833 5.21905.67666l8.29853 3.26377a1.00012 1.00012 0 0 0 .73242-1.86132l-7.64752-3.00791v-7.40146h19.227a2.93409 2.93409 0 0 0 2.93-2.93v-30.16a2.932 2.932 0 0 0 -2.93-2.92zm-21.227 42.62484a6.94943 6.94943 0 0 0 -5.70606 0v-6.61484h5.70606z"/><path d="m48.41 40.57v-32.57a3.99887 3.99887 0 0 0 -4-4h-24.82a3.99887 3.99887 0 0 0 -4 4v32.58c.50442-.01287 32.81475-.00519 32.82-.01zm-5.77-11.15a1.00012 1.00012 0 0 1 0 2h-21.28a1.00011 1.00011 0 0 1 0-2zm-20.32-12.42a9.68779 9.68779 0 0 1 9.68-9.68c12.84245.52815 12.83873 18.83375-.00007 19.36a9.68784 9.68784 0 0 1 -9.67993-9.68zm-.96 18h21.28a1 1 0 0 1 0 2h-21.28a1.00012 1.00012 0 0 1 0-2z"/><path d="m52.02 18.7-1.61.01v21.86h1.64z"/><path d="m11.98 40.61 1.61-.01v-21.87h-1.64z"/><path d="m39.68 17a7.682 7.682 0 0 0 -7.68-7.68c-10.166.3534-10.16342 15.0081.00013 15.36a7.682 7.682 0 0 0 7.67987-7.68zm-8.68 6.05v-1.04a3.09411 3.09411 0 0 1 -2.09-2.92 1 1 0 0 1 2 0 1.09 1.09 0 1 0 1.09-1.09 3.08745 3.08745 0 0 1 -.99991-6l-.00009-1.06a1 1 0 1 1 2 0v1.06a3.0812 3.0812 0 0 1 2.09 2.91 1.0002 1.0002 0 0 1 -2-.00006 1.09 1.09 0 1 0 -1.09 1.09006 3.09315 3.09315 0 0 1 .99991 6.01l.00009 1.04a1.00017 1.00017 0 0 1 -2 0z"/></g></svg>