<svg fill="#FFFFFF" id="Layer_1" enable-background="new 0 0 512 512" viewBox="0 0 512 512" xmlns="http://www.w3.org/2000/svg"><path d="m221.11 142.02c-13.35 14.26-23.22 31.15-29.14 49.27l-33.19-19.16-109.71 109.73c-11.23 11.22-29.42 11.22-40.65 0-11.23-11.23-11.23-29.42 0-40.65l125.24-125.21c10.03-10.06 25.71-11.11 36.91-3.15zm188.87 208.32c8.53-6.63 11.08-18.79 5.56-28.4l-.31-.54c-8.99 9.86-19.62 18.54-31.75 25.54-12.13 7.03-24.97 11.88-37.98 14.68l.31.57c5.56 9.61 17.35 13.46 27.38 9.41l58.68 101.65c5.84 10.12 18.91 13.63 29.06 7.8 10.12-5.84 13.61-18.91 7.77-29.06zm11.68-167.87-24.89 24.89c11.59 36.45-3.26 77.3-37.73 97.23-39.83 22.96-90.71 9.33-113.7-30.47-22.96-39.8-9.33-90.68 30.47-113.67 15.9-9.18 33.56-12.53 50.54-10.69l27.1-27.1c-30.13-9.86-64.2-7.4-93.85 9.72-55.28 31.92-74.24 102.64-42.32 157.95 31.95 55.28 102.64 74.24 157.95 42.32 52.75-30.47 72.42-96.18 46.43-150.18zm61.59-154.34h-104.74c-15.87 0-28.74 12.87-28.74 28.74s12.87 28.71 28.74 28.71h35.38l-106.36 106.36-26.53-15.33c-17.32 11.28-27.81 29.48-29.88 48.84l46.97 27.13c11.48 6.58 25.6 4.34 34.5-4.56l.08.06 121.83-121.83v35.38c0 15.87 12.87 28.74 28.74 28.74s28.76-12.88 28.76-28.76v-104.74c0-15.87-12.87-28.74-28.75-28.74z"/></svg>