<svg fill="#FFFFFF" fill="#FFFFFF" id="Layer_1" enable-background="new 0 0 512 512" height="512" viewBox="0 0 512 512" width="512" xmlns="http://www.w3.org/2000/svg"><path clip-rule="evenodd" d="m256 108.001c48.977 0 88.68 39.703 88.68 88.68s-39.703 88.68-88.68 88.68-88.68-39.703-88.68-88.68 39.703-88.68 88.68-88.68zm107.083-35.761c-12.473 0-22.584 10.111-22.584 22.584 0 9.656 6.06 17.894 14.584 21.124v141.389h-5.444c0 51.72-41.919 93.638-93.639 93.638s-93.638-41.918-93.638-93.638h-5.445v-141.39c8.523-3.23 14.583-11.468 14.583-21.124 0-12.472-10.111-22.584-22.583-22.584-12.473 0-22.584 10.111-22.584 22.584 0 9.656 6.06 17.894 14.584 21.124v141.389h-28.393v-105.453c0-4.418-3.582-8-8-8h-44.816c-3.229-8.524-11.468-14.584-21.124-14.584-12.473 0-22.584 10.111-22.584 22.583 0 12.473 10.111 22.584 22.584 22.584 9.655 0 17.894-6.06 21.124-14.583h36.817v97.454h-22.949v24.688l30.224 11.633c3.834 16.111 10.219 31.5 18.903 45.601l-13.153 29.615 34.915 34.914 29.624-13.157c14.098 8.681 29.481 15.067 45.588 18.9l11.637 30.23h49.376l11.633-30.224c16.111-3.833 31.5-10.219 45.601-18.903l29.615 13.153 34.914-34.915-13.157-29.624c8.681-14.098 15.067-29.481 18.9-45.588l30.231-11.637v-24.687h-22.949v-97.454h36.817c3.23 8.523 11.469 14.583 21.124 14.583 12.473 0 22.584-10.111 22.584-22.584 0-12.472-10.111-22.583-22.584-22.583-9.656 0-17.895 6.06-21.124 14.584h-44.817c-4.418 0-8 3.582-8 8v105.454h-28.393v-141.389c8.523-3.23 14.583-11.468 14.583-21.124-.002-12.472-10.113-22.583-22.585-22.583zm-107.083 48.725c-41.815 0-75.717 33.901-75.717 75.716 0 41.816 33.901 75.717 75.717 75.717 41.815 0 75.716-33.901 75.716-75.717 0-41.815-33.901-75.716-75.716-75.716zm27.311 52.051c-3.868-9.212-11.22-14.549-19.311-16.628v-2.559c0-4.418-3.582-8-8-8s-8 3.582-8 8v2.668c-11.46 3.041-20.035 12.255-19.434 24.63.718 14.799 13.252 21.055 26.215 23.184 5.295.869 14.097 2.648 14.887 9.158.053.441.081.706.083.805.121 5.107-6.766 7.035-10.769 7.52-.931.113-1.693.176-2.284.19-6.134.146-13.048-2.485-14.671-8.995-1.053-4.28-5.376-6.896-9.656-5.844-4.28 1.053-6.896 5.376-5.844 9.656 2.659 10.663 11.033 17.745 21.474 20.192v2.538c0 4.418 3.582 8 8 8s8-3.582 8-8v-2.376c11.729-2.419 21.998-10.238 21.688-23.256-.022-.911-.07-1.683-.145-2.306-1.837-15.127-14.833-20.839-28.199-23.033-4.518-.742-12.561-2.42-12.84-8.184-.242-4.974 4.121-7.811 8.488-8.69 6.371-1.283 12.946 1.267 15.57 7.516 1.708 4.073 6.396 5.99 10.469 4.281 4.071-1.707 5.988-6.394 4.279-10.467zm-27.311-36.051c-32.982 0-59.717 26.735-59.717 59.716 0 32.982 26.735 59.717 59.717 59.717s59.716-26.735 59.716-59.717c.001-32.981-26.734-59.716-59.716-59.716z" fill-rule="evenodd"/></svg>