<?xml version="1.0" encoding="UTF-8"?>
<svg id="Layer_1" xmlns="http://www.w3.org/2000/svg" version="1.1" viewBox="0 0 512 512">
  <!-- Generator: Adobe Illustrator 30.4.0, SVG Export Plug-In . SVG Version: 2.1.4 Build 226)  -->
  <defs>
    <style>
      .st0 {
        fill: #fff;
        fill-rule: evenodd;
      }
    </style>
  </defs>
  <path class="st0" d="M256,108c49,0,88.7,39.7,88.7,88.7s-39.7,88.7-88.7,88.7-88.7-39.7-88.7-88.7,39.7-88.7,88.7-88.7ZM363.1,72.2c-12.5,0-22.6,10.1-22.6,22.6s6.1,17.9,14.6,21.1v141.4h-5.4c0,51.7-41.9,93.6-93.6,93.6s-93.6-41.9-93.6-93.6h-5.4V115.9c8.5-3.2,14.6-11.5,14.6-21.1s-10.1-22.6-22.6-22.6-22.6,10.1-22.6,22.6,6.1,17.9,14.6,21.1v141.4h-28.4v-105.5c0-4.4-3.6-8-8-8h-44.8c-3.2-8.5-11.5-14.6-21.1-14.6s-22.6,10.1-22.6,22.6,10.1,22.6,22.6,22.6,17.9-6.1,21.1-14.6h36.8v97.5h-22.9v24.7l30.2,11.6c3.8,16.1,10.2,31.5,18.9,45.6l-13.2,29.6,34.9,34.9,29.6-13.2c14.1,8.7,29.5,15.1,45.6,18.9l11.6,30.2h49.4l11.6-30.2c16.1-3.8,31.5-10.2,45.6-18.9l29.6,13.2,34.9-34.9-13.2-29.6c8.7-14.1,15.1-29.5,18.9-45.6l30.2-11.6v-24.7h-22.9v-97.5h36.8c3.2,8.5,11.5,14.6,21.1,14.6s22.6-10.1,22.6-22.6-10.1-22.6-22.6-22.6-17.9,6.1-21.1,14.6h-44.8c-4.4,0-8,3.6-8,8v105.5h-28.4V115.9c8.5-3.2,14.6-11.5,14.6-21.1,0-12.5-10.1-22.6-22.6-22.6h0ZM256,121c-41.8,0-75.7,33.9-75.7,75.7s33.9,75.7,75.7,75.7,75.7-33.9,75.7-75.7-33.9-75.7-75.7-75.7ZM283.3,173c-3.9-9.2-11.2-14.5-19.3-16.6v-2.6c0-4.4-3.6-8-8-8s-8,3.6-8,8v2.7c-11.5,3-20,12.3-19.4,24.6.7,14.8,13.3,21.1,26.2,23.2,5.3.9,14.1,2.6,14.9,9.2,0,.4,0,.7,0,.8.1,5.1-6.8,7-10.8,7.5-.9.1-1.7.2-2.3.2-6.1.1-13-2.5-14.7-9-1.1-4.3-5.4-6.9-9.7-5.8-4.3,1.1-6.9,5.4-5.8,9.7,2.7,10.7,11,17.7,21.5,20.2v2.5c0,4.4,3.6,8,8,8s8-3.6,8-8v-2.4c11.7-2.4,22-10.2,21.7-23.3,0-.9,0-1.7-.1-2.3-1.8-15.1-14.8-20.8-28.2-23-4.5-.7-12.6-2.4-12.8-8.2-.2-5,4.1-7.8,8.5-8.7,6.4-1.3,12.9,1.3,15.6,7.5,1.7,4.1,6.4,6,10.5,4.3,4.1-1.7,6-6.4,4.3-10.5h0ZM256,137c-33,0-59.7,26.7-59.7,59.7s26.7,59.7,59.7,59.7,59.7-26.7,59.7-59.7c0-33-26.7-59.7-59.7-59.7h0Z"/>
</svg>