<?xml version="1.0" encoding="UTF-8"?>
<svg id="_Слой_1" data-name="Слой_1" xmlns="http://www.w3.org/2000/svg" version="1.1" viewBox="0 0 512 512">
  <!-- Generator: Adobe Illustrator 30.2.1, SVG Export Plug-In . SVG Version: 2.1.1 Build 1)  -->
  <defs>
    <style>
      .st0 {
        fill: #fff;
      }

      .st1 {
        opacity: .3;
      }
    </style>
  </defs>
  <g class="st1">
    <path class="st0" d="M162,321.2h-69.7c-15,0-27.3,12.2-27.3,27.3v72.7c0,13.4,10.9,24.2,24.2,24.2s24.2-10.9,24.2-24.2v-48.5c0-3.3-2.7-6.1-6.1-6.1s-6.1,2.7-6.1,6.1v48.5c0,6.7-5.4,12.1-12.1,12.1s-12.1-5.4-12.1-12.1v-72.7c0-8.4,6.8-15.2,15.2-15.2h69.7c8.4,0,15.2,6.8,15.2,15.2v90.9c0,3.3,2.7,6.1,6.1,6.1s6.1-2.7,6.1-6.1v-90.9c0-15-12.2-27.3-27.3-27.3h0Z"/>
    <path class="st0" d="M122.6,309c28.4,0,51.5-23.1,51.5-51.5s-23.1-51.5-51.5-51.5-51.5,23.1-51.5,51.5,23.1,51.5,51.5,51.5h0ZM122.6,218.1c21.7,0,39.4,17.7,39.4,39.4s-17.7,39.4-39.4,39.4-39.4-17.7-39.4-39.4,17.7-39.4,39.4-39.4h0Z"/>
    <path class="st0" d="M246.9,321.2h-45.5c-3.3,0-6.1,2.7-6.1,6.1s2.7,6.1,6.1,6.1h45.5c8.4,0,15.2,6.8,15.2,15.2v90.9c0,3.3,2.7,6.1,6.1,6.1s6.1-2.7,6.1-6.1v-90.9c0-15-12.2-27.3-27.3-27.3Z"/>
    <path class="st0" d="M184.7,230.7c7.4-8,18-12.6,28.9-12.6,21.7,0,39.4,17.7,39.4,39.4s-17.7,39.4-39.4,39.4-19-3.6-26.3-10c-2.5-2.2-6.3-2-8.6.5-2.2,2.5-2,6.3.5,8.6,9.5,8.5,21.7,13.1,34.4,13.1,28.4,0,51.5-23.1,51.5-51.5s-23.1-51.5-51.5-51.5-28.1,6-37.8,16.5c-2.3,2.5-2.1,6.3.3,8.6,2.5,2.3,6.3,2.1,8.6-.3h0Z"/>
    <path class="st0" d="M446.9,278.2c-.2-6.8-3-13-8-17.5-4.6-4.2-10.5-6.3-16.3-6.2V72.6c0-3.3-2.7-6.1-6.1-6.1s-6.1,2.7-6.1,6.1v15.2h-63.7v-3c0-.5,0-1-.2-1.5.1-.5.2-1,.2-1.5,0-3.3-2.7-6.1-6.1-6.1h-113.9c-2.1,0-4,1.1-5.1,2.9-1.1,1.8-1.2,4-.3,5.9l19.5,39.8-19.5,39.8c-.9,1.9-.8,4.1.3,5.9s3.1,2.9,5.1,2.9h107.9v6.1c0,3.1,2.4,5.7,5.5,6,.2,0,.4,0,.6,0h69.7v73.2c-1.6,1-3.2,2.2-4.6,3.7l-55.5,56.4h-67.2c-3.3,0-6.1,2.7-6.1,6.1s2.7,6.1,6.1,6.1h69.7s0,0,0,0c.1,0,.3,0,.4,0,0,0,.1,0,.2,0,.2,0,.4,0,.6,0,.1,0,.2,0,.3,0,0,0,.2,0,.2,0,.1,0,.2,0,.3-.1,0,0,.2,0,.3,0,0,0,.2,0,.3-.1,0,0,.2,0,.3-.1,0,0,.1,0,.2-.1,0,0,.2-.1.3-.2.2-.1.3-.2.5-.4,0,0,0,0,.1-.1.1,0,.2-.2.3-.3,0,0,0,0,0,0l57.4-58.3c4.4-4.5,11.5-4.7,16.1-.5,2.5,2.3,3.9,5.5,4,8.9.1,3.5-1.1,6.7-3.5,9.2l-76.6,77.6h0s0,0,0,0c0,0,0,0-.1.1,0,.1-.2.2-.3.3,0,0-.1.1-.2.2,0,0-.1.2-.2.3,0,0-.1.2-.2.2,0,0-.1.2-.2.3,0,0,0,.2-.1.3,0,0,0,.2-.1.3,0,0,0,.2,0,.3,0,0,0,.2-.1.3,0,0,0,.2,0,.3,0,.1,0,.2,0,.3,0,0,0,.2,0,.3,0,0,0,.2,0,.3,0,.1,0,.3,0,.4,0,0,0,.1,0,.2v69.7c0,3.3,2.7,6.1,6.1,6.1s6.1-2.7,6.1-6.1v-67.2l45.5-46.1v113.3c0,3.3,2.7,6.1,6.1,6.1s6.1-2.7,6.1-6.1v-125.6l17.3-17.5c4.7-4.8,7.1-11.2,6.9-18h0ZM236.7,160.5l16.5-33.7c.8-1.7.8-3.7,0-5.3l-16.5-33.7h98.1v72.7h-98.1ZM346.9,172.6v-72.7h63.7v72.7h-63.7Z"/>
    <path class="st0" d="M304.5,296.9c-9.7,0-19-3.6-26.3-10-2.5-2.2-6.3-2-8.6.5-2.2,2.5-2,6.3.5,8.6,9.5,8.5,21.7,13.1,34.4,13.1,28.4,0,51.5-23.1,51.5-51.5s-23.1-51.5-51.5-51.5-28.6,6.3-38.4,17.2c-2.2,2.5-2,6.3.5,8.6,2.5,2.2,6.3,2,8.6-.5,7.5-8.3,18.2-13.1,29.4-13.1,21.7,0,39.4,17.7,39.4,39.4s-17.7,39.4-39.4,39.4h0Z"/>
  </g>
</svg>