<?xml version="1.0" encoding="UTF-8"?>
<svg id="Capa_1" xmlns="http://www.w3.org/2000/svg" version="1.1" viewBox="0 0 512 512">
  <!-- Generator: Adobe Illustrator 30.2.1, SVG Export Plug-In . SVG Version: 2.1.1 Build 1)  -->
  <defs>
    <style>
      .st0 {
        fill: #fff;
      }

      .st1 {
        opacity: .3;
      }
    </style>
  </defs>
  <g class="st1">
    <path class="st0" d="M268.7,243.4c-3.9-3.9-10.2-3.9-14.1,0s-3.9,10.2,0,14.1c3.9,3.9,10.2,3.9,14.1,0,3.9-3.9,3.9-10.2,0-14.1Z"/>
  </g>
  <g class="st1">
    <path class="st0" d="M395.9,116.1c-19.5-19.5-51.2-19.5-70.7,0-19.5,19.5-19.5,51.2,0,70.7,19.5,19.5,51.2,19.5,70.7,0,19.5-19.5,19.5-51.2,0-70.7ZM381.8,172.6c-11.7,11.7-30.7,11.7-42.4,0-11.7-11.7-11.7-30.7,0-42.4,11.7-11.7,30.7-11.7,42.4,0,11.7,11.7,11.7,30.7,0,42.4Z"/>
  </g>
  <g class="st1">
    <path class="st0" d="M509.1,2.9c-2-2-4.6-3-7.4-2.9-2.3,0-56.1,2.2-120.1,24.9-51.3,18.1-94,44-127,77-7.4,7.4-14.6,15.2-21.5,23.4-32.6-19.2-58.8-13.2-75.3-4.3-38.1,20.4-61.7,75.7-61.7,115.3,0,4,2.4,7.7,6.2,9.2,1.2.5,2.5.8,3.8.8,2.6,0,5.2-1,7.1-2.9,20.1-20.1,44.9-18.8,52.9-17.8l3.5,3.5c-6.9,16.4-12.4,32.7-16.5,48.6-1.5,5.7-1,11.8,1.2,17.4-9.6,4.4-18.9,11-27,19-25.7,25.7-31,88.5-31.2,91.1-.2,2.9.8,5.8,2.9,7.9,1.9,1.9,4.4,2.9,7.1,2.9s.5,0,.8,0c2.7-.2,65.4-5.4,91.1-31.2,8.1-8.1,14.6-17.4,19-27,5.9,2.3,11.9,2.6,17.4,1.2,15.9-4.1,32.2-9.6,48.6-16.5l3.5,3.5c1.1,8.1,2.3,32.9-17.8,52.9-2.9,2.9-3.7,7.2-2.2,10.9,1.5,3.7,5.2,6.2,9.2,6.2,39.6,0,94.9-23.6,115.3-61.7,8.9-16.5,14.9-42.7-4.3-75.3,8.1-6.9,16-14.1,23.4-21.5,33-33,58.9-75.8,77-127,22.6-64,24.8-117.8,24.9-120.1,0-2.8-1-5.5-2.9-7.4ZM118.4,214.8c6.2-30.1,24.3-63.1,48.7-76.2,16.4-8.8,34.2-7.9,53.3,2.5-16.2,21.3-30.3,44.3-42,68.5-.1,0-1.9-2.4-5.3-3.1-1.4-.3-27.8-6-54.7,8.3ZM183.8,370.6c-13.8,13.8-46,21-66.4,24,3-20.4,10.2-52.6,24-66.4,7.7-7.7,16.6-13.5,25.6-16.8l33.7,33.7c-3.3,9-9.1,17.9-16.8,25.6ZM229.4,339.6c-2.9.7-6.2-.3-8.7-2.8-12.9-12.9-18-18-19.6-19.6-2.9-2.9-10.1-10.1-25.8-25.8-2.5-2.5-3.6-5.9-2.8-8.7,3.2-12.5,7.4-25.3,12.5-38.2l82.7,82.7c-12.9,5.1-25.7,9.3-38.2,12.5ZM373.4,344.9c-13.1,24.5-46.1,42.5-76.2,48.7,9.6-18,11.7-41,8.2-54.9-.8-3.2-2.9-4.9-3-5.1,24.2-11.7,47.2-25.8,68.5-42,10.4,19,11.3,36.9,2.5,53.3ZM395.9,243.4c-9,9-18.7,17.7-28.8,25.9-24.3,19.6-51.1,36.2-79.7,49.4l-94-94c13.2-28.6,29.8-55.4,49.4-79.7,8.2-10.1,16.9-19.8,25.9-28.8,29.6-29.6,67.9-53.2,113.7-70.2l83.8,83.8c-17,45.8-40.5,84-70.2,113.7ZM473.3,108.6l-69.9-69.9c38.1-11.8,71.2-16.3,87.7-17.8-1.6,16.5-6,49.7-17.9,87.7Z"/>
  </g>
  <g class="st1">
    <path class="st0" d="M240.4,413c-3.9-3.9-10.2-3.9-14.1,0l-28.3,28.3c-3.9,3.9-3.9,10.2,0,14.1,3.9,3.9,10.2,3.9,14.1,0l28.3-28.3c3.9-3.9,3.9-10.2,0-14.1Z"/>
  </g>
  <g class="st1">
    <path class="st0" d="M99,271.6c-3.9-3.9-10.2-3.9-14.1,0l-28.3,28.3c-3.9,3.9-3.9,10.2,0,14.1,3.9,3.9,10.2,3.9,14.1,0l28.3-28.3c3.9-3.9,3.9-10.2,0-14.1Z"/>
  </g>
  <g class="st1">
    <path class="st0" d="M169.7,427.2c-3.9-3.9-10.2-3.9-14.1,0l-67.7,67.7c-3.9,3.9-3.9,10.2,0,14.1,3.9,3.9,10.2,3.9,14.1,0l67.7-67.7c3.9-3.9,3.9-10.2,0-14.1Z"/>
  </g>
  <g class="st1">
    <path class="st0" d="M89.7,427.2c-3.9-3.9-10.2-3.9-14.1,0L7.8,494.9c-3.9,3.9-3.9,10.2,0,14.1,3.9,3.9,10.2,3.9,14.1,0l67.7-67.7c3.9-3.9,3.9-10.2,0-14.1Z"/>
  </g>
  <g class="st1">
    <path class="st0" d="M84.8,342.3c-3.9-3.9-10.2-3.9-14.1,0L2.9,410.1c-3.9,3.9-3.9,10.2,0,14.1,3.9,3.9,10.2,3.9,14.1,0l67.7-67.7c3.9-3.9,3.9-10.2,0-14.1Z"/>
  </g>
  <g class="st1">
    <path class="st0" d="M311.1,200.9c-3.9-3.9-10.2-3.9-14.1,0l-14.1,14.1c-3.9,3.9-3.9,10.2,0,14.1,3.9,3.9,10.2,3.9,14.1,0l14.1-14.1c3.9-3.9,3.9-10.2,0-14.1Z"/>
  </g>
</svg>