<?xml version="1.0" encoding="UTF-8"?>
<svg id="Layer_1" xmlns="http://www.w3.org/2000/svg" version="1.1" viewBox="0 0 64 64">
  <!-- Generator: Adobe Illustrator 30.2.1, SVG Export Plug-In . SVG Version: 2.1.1 Build 1)  -->
  <defs>
    <style>
      .st0 {
        fill: #fff;
        opacity: .3;
      }
    </style>
  </defs>
  <path class="st0" d="M7,8c-.3,0-.5,0-.7-.3s-.3-.4-.3-.7,0-.5.3-.7c.4-.4,1-.4,1.4,0s.3.4.3.7,0,.5-.3.7-.4.3-.7.3Z"/>
  <path class="st0" d="M11,8c-.3,0-.5,0-.7-.3s-.3-.4-.3-.7.1-.5.3-.7c.4-.4,1-.4,1.4,0,.2.2.3.4.3.7s-.1.5-.3.7-.4.3-.7.3Z"/>
  <path class="st0" d="M15,8c-.3,0-.5,0-.7-.3s-.3-.4-.3-.7.1-.5.3-.7c.4-.4,1-.4,1.4,0,.2.2.3.4.3.7s-.1.5-.3.7-.4.3-.7.3Z"/>
  <path class="st0" d="M57,8H19c-.6,0-1-.4-1-1s.4-1,1-1h38c.6,0,1,.4,1,1s-.4,1-1,1Z"/>
  <path class="st0" d="M15,22c-2.2,0-4-1.8-4-4s1.8-4,4-4,4,1.8,4,4-1.8,4-4,4ZM15,16c-1.1,0-2,.9-2,2s.9,2,2,2,2-.9,2-2-.9-2-2-2Z"/>
  <path class="st0" d="M21,34h-12c-1.7,0-3-1.3-3-3v-4c0-1.7,1.3-3,3-3h12c1.7,0,3,1.3,3,3v4c0,1.7-1.3,3-3,3ZM9,26c-.6,0-1,.4-1,1v4c0,.6.4,1,1,1h12c.6,0,1-.4,1-1v-4c0-.6-.4-1-1-1h-12Z"/>
  <path class="st0" d="M59,2H5c-1.7,0-3,1.3-3,3v42c0,1.7,1.3,3,3,3h15v10h-3c-.6,0-1,.4-1,1s.4,1,1,1h44c.6,0,1-.4,1-1s-.4-1-1-1h-3v-10h1c1.7,0,3-1.3,3-3V5c0-1.7-1.3-3-3-3ZM5,4h54c.6,0,1,.4,1,1v5H4v-5c0-.6.4-1,1-1ZM22,60v-13c0-.6.4-1,1-1h2c.6,0,1,.4,1,1v13h-4ZM30,60h-2v-10h2v10ZM32,60v-21c0-.6.4-1,1-1h2c.6,0,1,.4,1,1v21h-4ZM40,60h-2v-10h2v10ZM42,60v-17c0-.6.4-1,1-1h2c.6,0,1,.4,1,1v17h-4ZM50,60h-2v-10h2v10ZM52,60v-27c0-.6.4-1,1-1h2c.6,0,1,.4,1,1v27h-4ZM59,48h-1v-15c0-1.7-1.3-3-3-3h-2c-1.7,0-3,1.3-3,3v15h-2v-5c0-1.7-1.3-3-3-3h-2c-1.7,0-3,1.3-3,3v5h-2v-9c0-1.7-1.3-3-3-3h-2c-1.7,0-3,1.3-3,3v9h-2v-1c0-1.7-1.3-3-3-3h-2c-1.7,0-3,1.3-3,3v1H5c-.6,0-1-.4-1-1V12h56v35c0,.6-.4,1-1,1Z"/>
  <path class="st0" d="M45.1,16.9c-.4-.4-1-.4-1.4,0l-.3.3c0-.1-.2-.2-.3-.3-1.9-1.9-4.4-2.9-7.1-2.9s-5.2,1-7.1,2.9-2.9,4.4-2.9,7.1,1,5.2,2.9,7.1,4.4,2.9,7.1,2.9,5.2-1,7.1-2.9c0-.1.2-.2.3-.3l.3.3c.2.2.5.3.7.3s.5-.1.7-.3c3.9-3.9,3.9-10.3,0-14.2ZM44.3,28.9l-4.9-4.9,4.9-4.9c2.2,2.9,2.2,6.9,0,9.8ZM41.7,29.7c-1.6,1.5-3.6,2.3-5.7,2.3s-4.1-.8-5.7-2.3c-1.5-1.6-2.3-3.6-2.3-5.7s.8-4.1,2.3-5.7c1.5-1.5,3.5-2.3,5.7-2.3s4.1.8,5.7,2.3c0,.1.2.2.3.3l-4.6,4.6c-.3.3-.4.5-.4.8s0,.5.3.7l4.6,4.6c0,.2,0,.3-.2.4Z"/>
  <path class="st0" d="M8,38h-1c-.6,0-1-.4-1-1s.4-1,1-1h1c.6,0,1,.4,1,1s-.4,1-1,1Z"/>
  <path class="st0" d="M23,38h-11c-.6,0-1-.4-1-1s.4-1,1-1h11c.6,0,1,.4,1,1s-.4,1-1,1Z"/>
  <path class="st0" d="M8,42h-1c-.6,0-1-.4-1-1s.4-1,1-1h1c.6,0,1,.4,1,1s-.4,1-1,1Z"/>
  <path class="st0" d="M23,42h-11c-.6,0-1-.4-1-1s.4-1,1-1h11c.6,0,1,.4,1,1s-.4,1-1,1Z"/>
  <path class="st0" d="M8,46h-1c-.6,0-1-.4-1-1s.4-1,1-1h1c.6,0,1,.4,1,1s-.4,1-1,1Z"/>
  <path class="st0" d="M18,46h-6c-.6,0-1-.4-1-1s.4-1,1-1h6c.6,0,1,.4,1,1s-.4,1-1,1Z"/>
  <path class="st0" d="M57,16h-7c-.6,0-1-.4-1-1s.4-1,1-1h7c.6,0,1,.4,1,1s-.4,1-1,1Z"/>
  <path class="st0" d="M57,20h-7c-.6,0-1-.4-1-1s.4-1,1-1h7c.6,0,1,.4,1,1s-.4,1-1,1Z"/>
</svg>