<?xml version="1.0" encoding="UTF-8"?>
<svg id="Layer_1" xmlns="http://www.w3.org/2000/svg" version="1.1" viewBox="0 0 66 66">
  <!-- Generator: Adobe Illustrator 30.2.1, SVG Export Plug-In . SVG Version: 2.1.1 Build 1)  -->
  <defs>
    <style>
      .st0 {
        fill: #fff;
      }

      .st1 {
        opacity: .3;
      }
    </style>
  </defs>
  <g class="st1">
    <g>
      <path class="st0" d="M63.3,31.1l-6.2-1.4c-.5-2-1.3-3.9-2.3-5.6l3.4-5.4c.5-.8.3-1.7-.3-2.4l-3.4-3.4c-.6-.6-1.6-.8-2.4-.3l-5.4,3.4c-1.7-1-3.6-1.8-5.6-2.3l-1.4-6.2c-.2-.9-1-1.5-1.8-1.5h-4.9c-.9,0-1.6.6-1.9,1.5l-1.4,6.2c-1.5.4-2.9.9-4.3,1.6L13.5,3.3C10.7.5,6.1.5,3.3,3.3c-2.8,2.8-2.8,7.3,0,10.1l12,12c-.7,1.4-1.2,2.8-1.6,4.3l-6.2,1.4c-.9.2-1.5,1-1.5,1.8v4.9c0,.9.6,1.7,1.5,1.8l6.2,1.4c.5,2,1.3,3.8,2.3,5.6l-3.4,5.3c-.5.8-.4,1.7.3,2.4l3.4,3.4c.6.6,1.6.8,2.4.3l5.4-3.4c1.7,1,3.6,1.8,5.6,2.3l1.4,6.2c.2.9,1,1.5,1.9,1.5h4.9c.9,0,1.6-.6,1.8-1.5l1.4-6.2c.5-.1.9-.2,1.3-.4h.2c.4-.2.6-.7.5-1s-.6-.6-1-.5h-.2c-.5.2-1,.4-1.6.5-.3,0-.5.3-.6.6l-1.5,6.6c0,.2-.2.3-.4.3h-4.9c-.2,0-.3-.1-.4-.3l-1.5-6.6c0-.3-.3-.5-.5-.6-2.2-.5-4.2-1.4-6-2.5-.2-.2-.5-.2-.8,0l-5.8,3.6c-.1,0-.4,0-.5,0l-3.4-3.5c-.1-.1-.1-.3,0-.5l3.6-5.8c.1-.2.1-.5,0-.8-1.1-1.9-2-3.9-2.5-6,0-.3-.3-.5-.6-.6l-6.6-1.5c-.2,0-.3-.2-.3-.4v-4.9c0-.2.1-.3.3-.4l6.6-1.5c.3,0,.5-.3.6-.6.5-2.1,1.3-4.1,2.5-6,0,0,0,0,0,0,.1-.2.1-.5,0-.8l-1.9-3-1.7-2.7s0,0,0,0c0,0,0-.1,0-.2,0,0,0-.2.1-.2l3.4-3.4c0,0,.1,0,.2-.1,0,0,0,0,0,0,0,0,0,0,0,0,0,0,.1,0,.2,0l1.1.7,4.7,2.9c.2.1.5.1.8,0,1.9-1.1,3.9-2,6-2.5.3,0,.5-.3.6-.6l1.5-6.6c0-.2.2-.3.4-.3h4.9c.2,0,.3.1.4.3l1.5,6.6c0,.3.3.5.6.6,2.2.5,4.2,1.4,6,2.5.2.1.5.1.8,0l5.8-3.6c.2-.1.3,0,.5,0l3.5,3.5c.1.1.2.3,0,.5l-3.6,5.8c-.2.2-.2.5,0,.8,1.2,1.9,2,3.9,2.5,6,0,.3.3.5.6.6l6.6,1.5c.2,0,.3.2.3.4v4.9c0,.2-.1.3-.3.4l-6.6,1.5c-.3,0-.5.3-.6.6-.1.6-.4,1.4-.5,1.9-.1.4,0,.8.5.9s.8,0,.9-.5.3-1,.4-1.5l6.2-1.4c.9-.2,1.5-1,1.5-1.8v-4.9c0-.9-.6-1.6-1.5-1.8ZM18.8,12.8c-.6-.4-1.4-.4-2,0-.1,0-.3.1-.4.3l-1.2,1.2-3.9-3.9,3.5-3.5,9.2,9.2-5.2-3.3ZM16,24L6.8,14.8l3.5-3.5,3.9,3.9-1.2,1.2c-.5.5-.7,1.3-.4,2,0,.1,0,.2.2.4l2.1,3.4,1.1,1.8ZM4.4,4.4c1.1-1.1,2.6-1.7,4-1.7s2.9.5,4,1.7l1.4,1.4L5.8,13.8l-1.4-1.4c-2.2-2.2-2.2-5.8,0-8Z"/>
      <path class="st0" d="M61,51s0,0,0,0c0-.1,0-.2-.2-.3h0s-24.5-24.5-24.5-24.5c4.6,0,8.7,3.1,9.8,7.7,0,.4.5.7.9.5s.7-.5.5-.9c-1.3-5.2-5.9-8.8-11.2-8.8s-1.1,0-1.7.1c0,0,0,0,0,0-.2,0-.3,0-.5,0,0,0,0,0-.1,0-4.1.9-7.4,3.9-8.7,7.9h0c-.4.8-.5,2.9-.5,3.4,0,5.3,3.6,9.9,8.7,11.2,0,0,.1,0,.2,0,.3,0,.6-.2.7-.6,0-.4-.1-.8-.5-.9-4.5-1.1-7.6-5.1-7.6-9.8l24.5,24.5h0c0,0,.2.1.3.2,0,0,0,0,0,0l12.8,3.8c0,0,.1,0,.2,0,.2,0,.4,0,.5-.2s.3-.5.2-.7l-3.8-12.8ZM26.4,34.2c.4-1.7,1.1-3.3,2.2-4.5l26,26-3.5,3.5-24.8-24.9ZM55.7,54.7l-26-26c1.3-1.1,2.8-1.9,4.5-2.2l25,24.8-3.5,3.5ZM52.6,59.9l7.3-7.3,3,10.3-10.3-3Z"/>
    </g>
  </g>
</svg>