<?xml version="1.0" encoding="UTF-8"?>
<svg id="Capa_1" xmlns="http://www.w3.org/2000/svg" version="1.1" viewBox="0 0 512 512">
  <!-- Generator: Adobe Illustrator 30.2.1, SVG Export Plug-In . SVG Version: 2.1.1 Build 1)  -->
  <defs>
    <style>
      .st0 {
        fill: #fff;
      }

      .st1 {
        opacity: .3;
      }
    </style>
  </defs>
  <g id="code_coding_laptop" class="st1">
    <g id="laptop">
      <g>
        <path class="st0" d="M456,400c-4.4,0-8-3.6-8-8V136c0-4.4-3.6-8-8-8H72c-4.4,0-8,3.6-8,8v256c0,4.4-3.6,8-8,8s-8-3.6-8-8V136c0-13.2,10.8-24,24-24h368c13.2,0,24,10.8,24,24v256c0,4.4-3.6,8-8,8Z"/>
        <path class="st0" d="M456,464H56c-22.1,0-40-17.9-40-40s3.6-8,8-8h176c4.4,0,8,3.6,8,8s-3.6,8-8,8H33.4c3.3,9.3,12.2,16,22.6,16h400c10.4,0,19.3-6.7,22.6-16h-166.6c-4.4,0-8-3.6-8-8s3.6-8,8-8h176c4.4,0,8,3.6,8,8,0,22.1-17.9,40-40,40Z"/>
      </g>
    </g>
    <g>
      <path class="st0" d="M184,336c-1.9,0-3.7-.7-5.3-2l-64-56c-1.7-1.5-2.7-3.7-2.7-6s1-4.5,2.7-6l64-56c3.3-2.9,8.4-2.6,11.3.8,2.9,3.3,2.6,8.4-.8,11.3l-57.1,50,57.1,50c3.3,2.9,3.7,8,.8,11.3-1.6,1.8-3.8,2.7-6,2.7h0Z"/>
      <path class="st0" d="M232,352c-.8,0-1.7-.1-2.5-.4-4.2-1.4-6.4-5.9-5.1-10.1l48-144c1.4-4.2,5.9-6.5,10.1-5.1,4.2,1.4,6.4,5.9,5.1,10.1l-48,144c-1.1,3.3-4.2,5.5-7.6,5.5h0Z"/>
      <path class="st0" d="M328,336c-2.2,0-4.4-.9-6-2.7-2.9-3.3-2.6-8.4.8-11.3l57.1-50-57.1-50c-3.3-2.9-3.7-8-.8-11.3,2.9-3.4,8-3.7,11.3-.8l64,56c1.7,1.5,2.7,3.7,2.7,6s-1,4.5-2.7,6l-64,56c-1.5,1.3-3.4,2-5.3,2Z"/>
    </g>
  </g>
</svg>