<?xml version="1.0" encoding="UTF-8"?>
<svg id="Capa_1" xmlns="http://www.w3.org/2000/svg" version="1.1" viewBox="0 0 512 512">
  <!-- Generator: Adobe Illustrator 30.2.1, SVG Export Plug-In . SVG Version: 2.1.1 Build 1)  -->
  <defs>
    <style>
      .st0 {
        fill: #fff;
      }

      .st1 {
        opacity: .3;
      }
    </style>
  </defs>
  <g class="st1">
    <g id="_x31_0">
      <path class="st0" d="M218.9,402.3c5.9-9.6,13.5-25.1,22.5-46.1,1.9-4.4-.5-9.5-5.1-10.8-15.4-4.5-32-9-50.9-14.1-31.2-8.1-67.3-16.2-97.1-4.3-44.2,17.6-61.6,71.9-35.2,111.8,31.4,47.6,113,49,165.8-36.5ZM94.2,341.9c25.9-10.3,60-2.1,87.1,4.9,15.2,4,29,7.8,41.8,11.4-7.1,16-13.1,28-17.8,35.7,0,0,0,0,0,0-45.9,74.5-113.5,74.5-138.8,36.1-20.8-31.4-7.2-74.2,27.7-88.1h0Z"/>
      <path class="st0" d="M253.5,423.6c6.8-11.1,15-27.6,24.2-49,27,8.5,70.4,22.7,97.2,32.2,3.3,31.1,29.7,55.4,61.7,55.4s62-27.8,62-62-27.8-62-62-62-30.2,6-41.2,15.8c-26-9.2-69.2-23.4-96.5-32,2.3-5.9,4.3-11.4,6.2-16.6,9.9,2.4,20,3.6,30.1,3.6,34.3,0,68.3-13.5,92.8-39,9.8-10.2,11.8-26,3.7-38.7l69.3-70.5c16.1-18.4,14.4-46.7-3.8-63l-11.3-10.2c3.5-16.3-13.2-37.3-26.4-43.7-34.8-17-64.1,40.8-28.4,58.2,11.6,5.7,33.1,6.7,45.5-1.4l9.9,8.9c11.7,10.5,12.8,28.7,2.7,40.3l-69.4,70.6c-12.1-6.3-27.3-4.3-37.1,6-25,26.1-57.7,22.8-78.1,12.1-23.2-12.5-33.1-35-27.2-62,3.2-14.4-4-29-17.3-35.2l12.7-94.6c3.2-15.7,18.4-25.9,34-22.8l16.3,3.2c2.1,14.9,16.4,30.1,26.7,35.2,14.9,7.3,33.2-.2,40.9-16h0c7.9-16.1,2.2-35-12.5-42.2-13-6.3-41.6-7-51.8,7.3l-16.6-3.3c-24.4-4.8-48,11.2-52.8,35.5,0,0,0,.2,0,.2,0,0,0,.2,0,.2l-12.7,94.3c-5.1.4-10,1.9-14.4,4.7-7.1,4.5-12,11.5-13.8,19.7-10.3,46.2,4.2,89.1,38,117-3.3,8.9-6.5,17.5-9.6,25.6-18.4-5.3-34.1-9.6-48.9-13.5-37.7-9.8-81.4-19-122.3-2.7-68.2,26.9-94.7,110.4-54.1,171.9,47.9,72.4,165.7,73.6,234.2-37.7h0ZM438,87.7c-7.2-3.5-8.9-13.1-5.2-20.7h0c3.8-7.8,12.5-12.2,19.6-8.7,8.2,4,20.7,20.4,17.6,26.9-3,6.2-23,6.9-31.9,2.5h0ZM356.3,15.9c5.6,0,11.2.9,15,2.8,6.8,3.3,9.1,12.7,5.1,20.8-3.9,8.1-12.7,11.9-19.5,8.6-9-4.4-20.6-20.6-17.6-26.7,1.8-3.6,9.3-5.4,17-5.4h0ZM482.5,400.2c0,25.3-20.6,46-46,46s-54.5-31.8-43.1-62.2c6.7-17.8,23.8-29.8,43.1-29.8s46,20.7,46,46ZM231.7,166.5c.9-4,3.3-7.4,6.8-9.6,3.4-2.2,7.5-2.9,11.5-2,0,0,.1,0,.2,0,0,0,0,0,.1,0,8.2,1.9,13.3,10.1,11.5,18.3-7.6,33.9,5.6,63.7,35.3,79.6,27.3,14.4,68,15.2,97.1-15.2,5.9-6.1,15.6-6.3,21.8-.5,6.1,5.9,6.3,15.6.5,21.8-74.1,77.3-208.8,16-184.6-92.4h0ZM79.2,304.2c35.7-14.2,75.4-6.3,112.4,3.3,16.6,4.3,34.2,9.2,55.6,15.4,4,1.2,8.2-.9,9.7-4.8,3.5-9,7.1-18.6,10.8-28.5,8.6,5.3,15.3,8.4,22.1,11-2.6,7.1-5.7,15.1-8.9,23.4-.8,2.1-.7,4.4.3,6.3,1,2,2.7,3.5,4.8,4.2,24.1,7.6,68.9,22.1,98.2,32.4-3.9,6.2-7.5,15.2-8.8,23-29.8-10.4-75.1-25.1-99.8-32.8-3.9-1.2-8.2.7-9.7,4.5-10.1,24-18.8,42-25.9,53.5-62,100.7-165.6,100.1-207.3,37.2-34.9-53-12.2-125,46.7-148.2h0Z"/>
      <path class="st0" d="M436.5,430.1c16.5,0,29.8-13.4,29.8-29.8s-13.4-29.9-29.8-29.9-29.9,13.4-29.9,29.9c0,16.4,13.4,29.8,29.9,29.8ZM436.5,386.3c7.6,0,13.8,6.2,13.8,13.9s-6.2,13.8-13.8,13.8-13.9-6.2-13.9-13.8,6.2-13.9,13.9-13.9Z"/>
    </g>
  </g>
</svg>