<?xml version="1.0" encoding="UTF-8"?>
<svg id="Stroke" xmlns="http://www.w3.org/2000/svg" version="1.1" viewBox="0 0 512 512">
  <!-- Generator: Adobe Illustrator 30.2.1, SVG Export Plug-In . SVG Version: 2.1.1 Build 1)  -->
  <defs>
    <style>
      .st0 {
        fill: #fff;
        opacity: .3;
      }
    </style>
  </defs>
  <path class="st0" d="M477.6,250.6l-39.9-98.2c-5.7-14-15-26.1-27.1-35.2l-5.3-12.6c-13-32.1-49.6-47.5-81.7-34.5-23.7,9.6-39.1,32.6-39.1,58.1v22.1c-4.7,10.5-7.1,21.9-7.1,33.4v119.7h-43v-119.7c0-11.5-2.4-22.9-7.1-33.4v-22.1c0-34.6-28.1-62.7-62.7-62.7-25.5,0-48.4,15.4-58,39l-5.4,12.6c-12,9.1-21.4,21.2-27.1,35.2l-39.9,98.2c-44.1,46.4-42.2,119.8,4.3,163.9,46.4,44.1,119.8,42.2,163.9-4.3,14.2-15,24.2-33.5,28.9-53.6h49.1c14.4,62.4,76.7,101.3,139.1,86.9,62.4-14.4,101.3-76.7,86.9-139.1-4.7-20.2-14.6-38.7-28.9-53.8h0ZM426.6,157l31.3,77c-53.2-35.6-125.1-21.3-160.7,31.9-2.8,4.2-5.4,8.7-7.6,13.2v-95.4c0-39.3,31.9-71.2,71.2-71.2,15,0,29.6,4.7,41.7,13.5h.1c10.7,7.9,19.1,18.6,24.1,30.9ZM296.6,128.3c0-28,22.7-50.7,50.7-50.7,19.9,0,37.9,11.6,46.1,29.7-33.9-14.5-73.3-4.9-96.8,23.6v-2.5ZM164.7,77.6c28,0,50.6,22.7,50.7,50.7v2.5c-23.5-28.5-62.9-38.1-96.8-23.6,8.2-18.1,26.2-29.7,46.1-29.7ZM85.4,157c5-12.3,13.3-23,24-30.8,0,0,.1,0,.2-.1,31.9-23,76.4-15.8,99.4,16,8.8,12.1,13.5,26.7,13.5,41.6v95.4c-28.3-57.4-97.7-81-155.1-52.8-4.6,2.3-9,4.8-13.2,7.6l31.3-77ZM118.5,434.4c-57.4,0-104-46.6-104-104s46.6-104,104-104,104,46.6,104,104c0,57.4-46.6,103.9-104,104h0ZM234.5,344.6v-29.2h43v15c0,4.8.3,9.5.9,14.2h-43.9ZM393.5,434.4c-50.8,0-94.2-36.8-102.6-86.9v-34.1c9.4-56.7,63-95,119.6-85.6,56.7,9.4,95,63,85.6,119.6-8.3,50.2-51.7,87-102.6,87Z"/>
  <path class="st0" d="M393.5,249.6c-44.7,0-80.8,36.2-80.8,80.8s36.2,80.8,80.8,80.8,80.8-36.2,80.8-80.8h0c0-44.6-36.2-80.8-80.8-80.8ZM393.5,399.3c-38,0-68.8-30.8-68.8-68.8s30.8-68.8,68.8-68.8,68.8,30.8,68.8,68.8c0,38-30.8,68.8-68.8,68.9Z"/>
  <path class="st0" d="M118.5,249.6c-44.7,0-80.8,36.2-80.8,80.8s36.2,80.8,80.8,80.8,80.8-36.2,80.8-80.8h0c0-44.6-36.2-80.8-80.8-80.8ZM118.5,399.3c-38,0-68.8-30.8-68.8-68.8s30.8-68.8,68.8-68.8,68.8,30.8,68.8,68.8c0,38-30.8,68.8-68.8,68.9Z"/>
</svg>