<?xml version="1.0" encoding="UTF-8"?>
<svg id="Layer_1" xmlns="http://www.w3.org/2000/svg" version="1.1" viewBox="0 0 512 512">
  <!-- Generator: Adobe Illustrator 30.2.1, SVG Export Plug-In . SVG Version: 2.1.1 Build 1)  -->
  <defs>
    <style>
      .st0 {
        fill: #fff;
        opacity: .3;
      }
    </style>
  </defs>
  <path class="st0" d="M341.2,178.5c0-4.4,3.6-8,8-8h154.8c4.4,0,8,3.6,8,8s-3.6,8-8,8h-154.8c-4.4,0-8-3.6-8-8ZM0,112.6C0,50.5,50.5,0,112.6,0s112.6,50.5,112.6,112.6-50.5,112.6-112.6,112.6S0,174.7,0,112.6ZM208.9,120.7h-82.3s41.7,70.9,41.7,70.9c22.7-16.1,38.2-41.6,40.6-70.9ZM120.6,16.3v88.3h88.3c-3.8-46.9-41.4-84.4-88.3-88.3ZM16,112.6c0,53.3,43.3,96.6,96.6,96.6s29.2-3.4,41.9-9.6l-48.8-83c-.7-1.2-1.1-2.6-1.1-4.1V16.3C55.1,20.4,16,62,16,112.6ZM349.2,21.2h154.8c4.4,0,8-3.6,8-8s-3.6-8-8-8h-154.8c-4.4,0-8,3.6-8,8s3.6,8,8,8ZM349.2,54.7h77.4c4.4,0,8-3.6,8-8s-3.6-8-8-8h-77.4c-4.4,0-8,3.6-8,8s3.6,8,8,8ZM261.5,52V8C261.5,3.6,265.1,0,269.5,0h44C317.9,0,321.5,3.6,321.5,8v44c0,4.4-3.6,8-8,8h-44c-4.4,0-8-3.6-8-8ZM277.5,44h28V16h-28v28ZM349.2,103.9h154.8c4.4,0,8-3.6,8-8s-3.6-8-8-8h-154.8c-4.4,0-8,3.6-8,8s3.6,8,8,8ZM349.2,137.4h77.4c4.4,0,8-3.6,8-8s-3.6-8-8-8h-77.4c-4.4,0-8,3.6-8,8s3.6,8,8,8ZM261.5,134.6v-44c0-4.4,3.6-8,8-8h44c4.4,0,8,3.6,8,8v44c0,4.4-3.6,8-8,8h-44c-4.4,0-8-3.6-8-8ZM277.5,126.6h28v-28h-28v28ZM69.2,321.4v182.6c0,4.4-3.6,8-8,8H8C3.6,512,0,508.4,0,504v-182.6c0-4.4,3.6-8,8-8h53.2c4.4,0,8,3.6,8,8ZM53.2,329.4H16v166.6h37.2v-166.6ZM507.1,465.7l-20.4,21c-3.4,3.5-7.9,5.3-12.5,5.3s-8.7-1.6-12.1-4.9l-56.6-54.9c-3.3-3.2-5.2-7.6-5.3-12.2,0-2.4.4-4.8,1.3-7l-21.8-21.1c-7.7,5.7-16.1,10.5-25.1,14.1v98c0,4.4-3.6,8-8,8h-53.2c-4.4,0-8-3.6-8-8v-93.6c-9.7-2.5-18.9-6.3-27.4-11.2v104.8c0,4.4-3.6,8-8,8h-53.2c-4.4,0-8-3.6-8-8v-155.6c0-4.4,3.6-8,8-8h12c-4.2-11.7-6.5-24.3-6.5-37.4,0-42.4,23.9-79.4,59-98.1v-31.7c0-4.4,3.6-8,8-8h44c4.4,0,8,3.6,8,8v19c15.1,1.1,29.3,5.2,42.2,11.7h63c4.4,0,8,3.6,8,8s-3.6,8-8,8h-39.5c22.9,20.4,37.4,50,37.4,83s-6,41-16.3,57.9l22.7,22c2.1-1,4.5-1.5,6.9-1.6,4.7,0,9,1.7,12.4,4.9l56.6,54.9c6.9,6.7,7,17.7.4,24.6h0ZM398.8,374c-2.1,2.6-4.4,5-6.7,7.4l19.9,19.3,7-7.2-20.1-19.5ZM277.5,198c8.9-3,18.2-5,28-5.7v-11h-28v16.7ZM218.5,303c0,52.4,42.6,95,95,95s95-42.6,95-95-42.6-95-95-95-95,42.6-95,95ZM242.2,388c-10.5-8.8-19.4-19.6-26-31.7h-11.2v139.6h37.2v-108ZM338.8,411.1c-8.1,1.9-16.6,2.9-25.3,2.9s-8-.2-11.9-.6v82.6h37.2v-84.9ZM495.6,452.6l-56.6-54.9c-.3-.3-.7-.4-.9-.4h0c-.3,0-.6,0-1,.4l-20.4,21c-.3.3-.4.7-.4,1s0,.6.4,1l56.6,54.9c.5.5,1.4.5,1.9,0l20.4-21c.5-.5.5-1.4,0-1.9h0ZM161.6,274.6v229.4c0,4.4-3.6,8-8,8h-53.2c-4.4,0-8-3.6-8-8v-229.4c0-4.4,3.6-8,8-8h53.2c4.4,0,8,3.6,8,8ZM145.6,282.6h-37.2v213.4h37.2v-213.4ZM230.5,303c0-45.8,37.2-83,83-83s83,37.2,83,83-37.2,83-83,83-83-37.2-83-83h0ZM313.5,370c16.6,0,31.8-6.1,43.5-16.1-4.1-20.6-22.1-35.6-43.5-35.6s-39.4,15.1-43.5,35.7c11.7,10,26.9,16.1,43.5,16.1ZM313.5,302.2c10.2,0,18.5-8.3,18.5-18.5s-8.3-18.5-18.5-18.5-18.5,8.3-18.5,18.5,8.3,18.5,18.5,18.5ZM246.5,303c0,13.6,4.1,26.2,11.1,36.8,5.8-14.4,17-25.9,31-32.2-5.9-6.2-9.6-14.6-9.6-23.8,0-19,15.5-34.5,34.5-34.5s34.5,15.5,34.5,34.5-3.7,17.6-9.6,23.8c14,6.3,25.2,17.8,31,32.2,7-10.6,11.1-23.2,11.1-36.8,0-36.9-30.1-67-67-67s-67,30.1-67,67h0Z"/>
</svg>