<?xml version="1.0" encoding="UTF-8"?>
<svg id="Capa_2" data-name="Capa 2" xmlns="http://www.w3.org/2000/svg" xmlns:xlink="http://www.w3.org/1999/xlink" viewBox="0 0 2072.57 592.17">
  <defs>
    <style>
      .cls-1 {
        fill: url(#Degradado_sin_nombre_7);
      }

      .cls-2 {
        fill: #FFFFFF;
      }
    </style>
    <linearGradient id="Degradado_sin_nombre_7" data-name="Degradado sin nombre 7" x1="480.83" y1="522.47" x2="109.34" y2="79.74" gradientUnits="userSpaceOnUse">
      <stop offset="0" stop-color="#a72ef4"/>
      <stop offset=".5" stop-color="#1f43c2"/>
      <stop offset="1" stop-color="#7736e4"/>
    </linearGradient>
  </defs>
  <g id="Capa_1-2" data-name="Capa 1">
    <g>
      <path class="cls-1" d="M237.34,242.44l57.35,33.4,146.02-85.97,89.49-52.88,59.52,34.56-163.02,94.06-131.82,76.36-112.95-65.35L0,171.49l157.95-91.8L294.81,0l63.38,37.03-51.82,30.52-184.64,108.18,58.15,33.57,127.98-75.76,107.04-63.61,56.89,33.27-174.83,103.66-59.61,35.59ZM529.87,272.37l-235.07,133.08-107.86-61.32-127.06-71.73L3.26,305.21l92.93,52.37,198.65,112.26,145.48-82.3,145.97-82.25-56.43-32.92ZM529.74,401.97l-235.02,127.35-158.91-86.33-75.79-40.95L3.39,434.16l191.01,103.44,100.48,54.57,119.04-64.65,172.17-93.37-56.36-32.18Z"/>
      <g>
        <path class="cls-2" d="M736.33,164.47h191.44v46.27h-140.5v72.58h133.71v44.99h-133.71v78.95h143.89v46.27h-194.83V164.47Z"/>
        <path class="cls-2" d="M1020.3,164.47h97.2c92.53,0,149.84,53.48,149.84,144.32s-57.73,144.74-150.26,144.74h-96.78V164.47ZM1117.5,408.11c59.85,0,95.08-37.35,95.08-99.33s-34.81-98.9-95.08-98.9h-46.27v198.23h46.27Z"/>
        <path class="cls-2" d="M1354.79,164.47h50.51v289.06h-50.51V164.47Z"/>
        <path class="cls-2" d="M1506.75,164.47h111.21c53.91,0,92.11,32.26,92.11,84.47,0,48.39-34.81,78.1-83.2,81.92l109.51,120.97v1.7h-64.52l-113.76-129.04h-.42v129.04h-50.94V164.47ZM1557.68,207.76v84.89h56.45c27.17,0,44.99-16.55,44.99-42.87s-18.25-42.02-44.99-42.02h-56.45Z"/>
        <path class="cls-2" d="M1909.99,164.04h44.57l118,289.49h-55.61l-25.04-66.22h-122.25l-25.47,66.22h-52.63l118.43-289.49ZM1974.94,341.89l-42.87-114.18-44.57,114.18h87.44Z"/>
      </g>
    </g>
  </g>
</svg>