<svg fill="#FFFFFF" id="Capa_1" enable-background="new 0 0 512 512" height="512" viewBox="0 0 512 512" width="512" xmlns="http://www.w3.org/2000/svg"><g id="Exchange"><g><path d="m332 512c-32.156 0-63.724-8.588-91.288-24.836-26.735-15.76-49.08-38.288-64.619-65.149-5.53-9.562-2.264-21.796 7.298-27.327s21.796-2.264 27.327 7.297c24.981 43.187 71.455 70.015 121.282 70.015 77.196 0 140-62.804 140-140s-62.804-140-140-140h-120c-11.046 0-20-8.954-20-20s8.954-20 20-20h120c99.252 0 180 80.748 180 180s-80.748 180-180 180z"/></g><g><path d="m300 360h-120c-99.252 0-180-80.748-180-180s80.748-180 180-180c32.156 0 63.724 8.588 91.288 24.836 26.735 15.76 49.08 38.288 64.619 65.149 5.53 9.562 2.264 21.796-7.298 27.327-9.561 5.531-21.797 2.264-27.327-7.297-24.981-43.187-71.455-70.015-121.282-70.015-77.196 0-140 62.804-140 140s62.804 140 140 140h120c11.046 0 20 8.954 20 20s-8.954 20-20 20z"/></g><g><path d="m167.039 256.603-36.282-38.835c-10.416-11.149-16.151-25.694-16.151-40.955s5.735-29.805 16.15-40.954l36.283-38.835c7.541-8.071 20.198-8.501 28.268-.96 8.071 7.541 8.502 20.197.961 28.268l-36.282 38.834c-3.469 3.713-5.38 8.561-5.38 13.647 0 5.087 1.911 9.934 5.38 13.648l36.282 38.834c7.541 8.071 7.11 20.728-.961 28.268-8.071 7.541-20.727 7.11-28.268-.96z"/></g><g><path d="m315.984 416.646c-8.071-7.541-8.502-20.197-.961-28.268l36.282-38.835c3.469-3.713 5.38-8.56 5.38-13.647s-1.911-9.934-5.38-13.648l-36.282-38.834c-7.541-8.071-7.11-20.728.961-28.268 8.069-7.541 20.725-7.112 28.268.96l36.282 38.835c10.416 11.149 16.151 25.694 16.151 40.955s-5.735 29.806-16.151 40.954l-36.282 38.835c-7.54 8.072-20.197 8.502-28.268.961z"/></g></g></svg>