<?xml version="1.0" encoding="UTF-8"?>
<svg fill="#FFFFFF" id="Capa_2" data-name="Capa 2" xmlns="http://www.w3.org/2000/svg" viewBox="0 0 1182.18 996.23">
  <g id="Capa_1-2" data-name="Capa 1">
    <path d="M763.12,116.99l33,10.68C748.52,2.8,634.77-25.78,517.08,21.55c-49.7,19.99-94.03,47.28-136.08,82.03l36.43,4.34c27.5-20.14,54.57-37.85,85.25-52.42,98.76-46.9,207.57-45.98,260.44,61.48ZM273.09,399.98c2.71-18.1,13.59-31.87,25.62-38.99,16.43-9.72,34.26-10.94,50.22-2.78,13.08,6.7,19.1,19.15,26.23,32.72,17.2-7.61-2.33-39.33,31.08-58.91,10.28-6.03,15.58-16.2,15.15-28.46-.87-24.9,15.13-43.36,39.59-46.62,41.29-5.5,87.55-10.44,108.47-53.47,12.98-26.71,12.06-54.57-.33-79.61-1.62-3.28-7.74-5.33-11.05-3.81-99.74,45.53-172.74-14.84-278.87,24.69-30.96,11.53-46.66,35.14-58.64,62.49-53.05,27.31-69.54,87.87-59.47,144.64,7.12,40.14,23.65,76.34,44.57,111.37l41.18,68.97c27.04-8.85,45.49-28.76,57.18-53.34-23.53-19.26-35.53-48.15-30.92-78.9ZM749.65,377.73l17.72,18.32c35.36-41.1,71.65-90.05,77.49-144.33,4.18-38.85-13.84-74.7-47-94.66-54.46-32.78-135.7-27.09-194.94-14.2l2.3,25.46c53.73-11.13,122.37-17.3,171.72,6.83,30.83,15.08,47.23,44.55,41.93,78.36-7.56,48.21-39,84.84-69.21,124.22ZM103.13,296.39c10.67-5.21,21.22-8.78,32.74-12.88l8.19-27.59c-27.42,4.92-51.8,14.15-73.55,30.73-59.87,45.65-52.54,126.57-31.85,191.7l18.96-27.26c-14.96-57.09-14.74-125.29,45.5-154.7ZM371.76,663.89c17.49,7.2,33.88,11.7,50.88,14.66l19.35-70.95c1.97-7.22,12.73-9.1,19.34-8.57,20.12,1.62,38.31,4.28,58.14,3.7,16.6-.49,32.92-11.57,34.96-29.03l10.78-92.3c11.43-10.04,32.2-5.73,38.21-19.46,1.95-4.44,1.07-12.63-1.62-17.07l-36.19-59.74c-11.59-19.13,6.74-36.08-3.08-78.55-3.82-16.53-9.26-32.42-15.94-47.81-18.78,9.44-35.44,14.6-54.75,17.45l-34.15,5.05c-23.93,3.54,1.79,43.91-36.91,67.45-25.93,15.77-2.72,46.08-32.49,60.85-7.72,3.83-16.29,4.34-24.76.81-5.28-2.2-10.48-9.14-12.97-16.28-5.58-15.98-21.91-22.78-37.15-15.08-10.82,5.47-17.97,17.3-18.55,29.96-1.18,25.46,12.72,47.32,34.8,60.89-8.68,40.37-38.29,71.32-75.52,84.86-2.53,19.52-6.54,36.34-13.31,55.24l130.92,53.9ZM1008.95,533.52c9.33-4.79,13.91-6.89,21.99-13.19l-117.48-121.54-84.1,91.29-183.03-183.92-36.02,35.87,220.39,222.79,83.72-91.7,92.69,97.95c4.72-2.06,8.66-4.04,11.91-5.93l-10.07-31.63ZM90.26,742.45c-41.74-15.69-65.53-50.96-64.24-93.69,2.51-82.68,71.57-173.37,126.78-232.07l-9.61-26.34c-73.98,71.12-195.15,236.28-118.96,335.93,14.52,18.99,33.49,31.15,56.3,41l9.73-24.83ZM973.22,667.17c-.02-8.01-10.08-14.01-15.2-14.74-15.11-2.15-19.03,17.98-27.37,16.98-2.77-.33-7.31-4.97-8.36-8.17l-26.82-81.67c-3.65-11.12-22.89-13.5-29.88-7.01-2.13,1.98-4.4,7.82-4.4,11.48l.36,215.92-30.92.07v-170.07c.01-6.16-2.85-11.56-8.21-13.62-3.33-1.28-10.5.3-13.51,3.07l-14.61,13.43c-4.99,4.59-11.7,3.72-15.64-1.58l-19.2-25.77c-3.04-4.08-9.95-6.03-14.48-4.3-3.76,1.43-7.22,7-7.22,12.05l.1,186.87c-11.17.56-20.62.64-30.8.05l-.07-282.02c0-4.95-2.75-10.51-5.45-12.63s-10.71-3.1-13.51-1.24l-19.83,13.15c-3.09,2.05-9.42-1.14-11.46-4.51l-20.6-34.11c-2.52-4.17-9.14-6.76-13.61-5.73-3.79.88-8.51,6.09-8.51,11.47v220.19c-62.38,66.49-137.25,118.62-219.2,160.62,7.98,5.96,15.71,10.4,24.42,14.3,71.21-37.93,135.24-82.04,194.59-139.93l.29,60.23-30.23,1.46c-5.39.26-8.34,9.64-8.19,13.77s2.61,13.77,9.18,13.77l589.48-.04c6.04-2.25,7.92-10.38,7.79-14.98-.11-4.13-3.6-12.96-9.09-13.02l-58.1-.63.08-77.35c0-4.14-2.66-9.53-5.35-11.18-2.35-1.45-9.83-3.04-12.38-1.73-25.96,13.33-31.66,34.7-46,22.1-11.31-9.93-29.26-28.61-40.69-22.06-2.77,1.59-6.38,7.42-6.37,11.08l.34,79.27-31.13-.12-.26-133.1ZM1030.95,594.01l17.39,18.87-34.2,34.01,132.14,28.02-25.7-133.65-34.95,33.15-28.85-28.82-21.17,4.68,9.57,29.96-14.24,13.78ZM306.14,854.45l110.88-.6,79.11-48.91c-8.29-20.24-52.13-103.85-73.8-102.73-23.16-4.43-44.33-10.83-66.17-19.86l-116.17-48.03c-6.26-1.87-15.84-5.42-21.37-2.28-21.81,12.41-38.44,28.39-57.37,46.76-28.73-44.67-51.43-89.17-72.93-137.89-6.14,8.59-10.73,17.57-15.76,28.76,63.77,143.05,182.76,302.39,320.12,381.34,38.08,21.89,77.3,37.52,120.5,43.35,90.42,12.2,163.52-36.26,203.01-114.71l-29.33.3c-37.5,63.5-94.49,97.41-169.55,88.6-78.35-10.16-152.77-59.89-211.19-114.09ZM233.24,853.36c-39.07-43.9-72.2-84.34-103.59-131.73-24.84,40.76-38.58,84.27-42.32,132.22l145.9-.49ZM313.74,926.99c-56.98,20.01-119.23,33.28-176.16,21.88-88.8-17.79-119.54-104.53-109.54-184.73l-22.12-19.92c-13.91,68.24-.55,149.49,55.63,196.41,75.05,62.68,192.51,36.77,276.91,4.83l-24.72-18.46Z"/>
  </g>
</svg>