<?xml version="1.0" encoding="UTF-8"?>
<svg fill="#FFFFFF" id="Capa_2" data-name="Capa 2" xmlns="http://www.w3.org/2000/svg" viewBox="0 0 1970.65 1536">
  <g id="Capa_1-2" data-name="Capa 1">
    <g>
      <path d="M1694.02,0l30.05,10.47c45.83,19.36,76.55,60.99,80.04,111.02l3.59,219.22-150.52-.28-.38-194.05-1501.6.38-.03,1126.53,1501.73.33.18-277.27,154.2-.18.19,213.63-1.42,98.51-4.35,116.4c-2.02,54.18-52.42,99.4-103.68,111.27H110.02c-1.54-1.75-3.72-2.77-7.17-3.55-55.61-12.63-95.38-60.3-97.26-118.53l-3.49-108.17-2.1-99.47.07-574.67,2.14-207.81,1.96-106.16,1.69-115.67,1.83-74.03C9.18,67.19,51.59,15.79,110.73,3.54c3.38-.7,5.78-1.79,7.29-3.54h1576ZM1039.01,1448.87c23.48-.16,36.18-26.89,34.81-45.55-1.45-19.75-17.42-39.73-39.87-39.73l-223.59-.02c-24.52,0-40.47,21.56-40.45,43.58.02,26.87,19.84,43.41,46.33,43.23l222.76-1.52Z"/>
      <g>
        <path d="M1833.41,641.57l-98.73-135.74c-3.71-5.1-9.48-8.56-13.69-9-5.95-.63-12.19,1.02-16.09,6.39l-116.86,160.8c-6.03,8.29-7.31,18.24-3.81,27.21,6.49,9.71,17.4,11.13,28.19,7.75,22.7-8.8,44.08-19.56,64.59-31.07l-.02,257.14-228.6-.68c-14.94-.04-23.93-14.24-23.84-28.65l.25-457.45c0-17.66,12.87-26.81,29.53-26.8l492.43.44c12.99.01,23.67,12.2,23.67,24.66l.2,466.35c-2.6,12.22-10.25,21.7-22.97,21.71l-188.25.21-.29-256.11,38.35,18.24c16.17,7.69,40.22,21.96,53.52,6.55,13.14-15.22-5.68-35.57-17.6-51.97Z"/>
        <path d="M925.88,793.43l-185.68-.31-195.57,132.84-67.53,46.42-.14,109.71c-.01,11.03-7.07,22.39-19.44,22.41l-151.38.23c-12.34.02-21.29-10.71-21.29-22.72l-.06-145.94c1.76-13,12.59-20.64,25.32-20.61l129.01.33,276.43-187.5c3.85-2.61,7.55-5.44,7.57-10.24l.32-115.77c.03-11.84,9.23-19.33,20.63-19.32l177.71.21c11.02.8,20.23,8.36,20.3,19.94l.76,119.15,134.87,99.01,150.43-.02,156.31-111.84.61,81.56-122.08,90.17-.74,131.99c-.06,11.48-10.69,18.78-21.15,19.2l-174.37.08c-14.41-.52-23.2-10.53-23.22-24.56l-.15-127.76-117.45-86.67Z"/>
      </g>
    </g>
  </g>
</svg>