<svg fill="#FFFFFF" id="Capa_1" enable-background="new 0 0 512 512" height="512" viewBox="0 0 512 512" width="512" xmlns="http://www.w3.org/2000/svg"><g><path d="m0 350.156v28.659c0 8.837 7.164 16.001 16.001 16.001h479.998c8.837 0 16.001-7.164 16.001-16.001v-28.659z"/><path d="m478.24 468.877h-154.343v-44.061h-135.794v44.061h-154.343c-8.284 0-15 6.716-15 15s6.716 15 15 15h444.48c8.284 0 15-6.716 15-15s-6.716-15-15-15z"/><path d="m148.308 155.301h.308c13.008-.083 23.566-10.688 23.566-23.716 0-13.079-10.641-23.72-23.72-23.72-13.078 0-23.719 10.641-23.719 23.72 0 13.028 10.557 23.633 23.565 23.716z"/><path d="m160.979 185.301h-25.034c-16.078 0-29.158 13.081-29.158 29.159v10.953h83.351v-10.953c-.001-16.078-13.081-29.159-29.159-29.159z"/><path d="m512 29.124c0-8.837-7.164-16.001-16.001-16.001h-479.998c-8.837 0-16.001 7.164-16.001 16.001v291.032h512zm-291.863 211.29c0 8.284-6.716 15-15 15h-113.35c-8.284 0-15-6.716-15-15v-25.954c0-21.484 11.514-40.326 28.692-50.69-6.738-8.977-10.736-20.122-10.736-32.185 0-29.621 24.098-53.72 53.719-53.72s53.72 24.099 53.72 53.72c0 12.063-3.998 23.208-10.737 32.185 17.179 10.364 28.693 29.206 28.693 50.69v25.954zm95.446-46.065c0 8.284-6.716 15-15 15s-15-6.716-15-15v-55.419c0-8.284 6.716-15 15-15s15 6.716 15 15zm58.285 40.482c0 8.284-6.716 15-15 15s-15-6.716-15-15v-136.382c0-8.284 6.716-15 15-15s15 6.716 15 15zm58.285-40.482c0 8.284-6.716 15-15 15s-15-6.716-15-15v-55.419c0-8.284 6.716-15 15-15s15 6.716 15 15z"/></g></svg>