<svg fill="#FFFFFF" id="Layer_3" enable-background="new 0 0 60 60" height="512" viewBox="0 0 60 60" width="512" xmlns="http://www.w3.org/2000/svg"><path d="m31.7126465 39.6600342c-.5600586-.9299927-.5900269-2.0200195-.1200562-2.9500122l8.6800537-17.3499756c-.9600219-1.1400147-2.3900146-1.8600464-3.9900512-1.8600464 0-2.8699951-2.3199463-5.1900024-5.1900024-5.1900024-2.8699951 0-5.1999512 2.3200073-5.1999512 5.1900024v4.1700439c.7699585-.5400391 1.6999512-.8699951 2.6999512-.8699951.5599976 0 1 .4499512 1 1 0 .5499878-.4400024 1-1 1-1.4699707 0-2.6699829 1.1999512-2.6699829 2.6799927 0 .039978-.0200195.0799561-.0299683.1300049v9.1999512c.0099487.0400391.0299683.0800171.0299683.1300049 0 1.4800415 1.2000122 2.6799927 2.6699829 2.6799927.5599976 0 1 .4400024 1 1 0 .5500488-.4400024 1-1 1-1 0-1.9299927-.3299561-2.6999512-.8800049v3.7600097c0 2.8699951 2.3299561 5.1900024 5.1999512 5.1900024 2.8700562 0 5.1900024-2.3200073 5.1900024-5.1900024 1.3800049 0 2.6400146-.539978 3.5700073-1.4199829h-5.5899658c-1.0300293 0-2.0100098-.539978-2.5499878-1.4199829zm-.8500366-8.9100342c-.5499878 0-1-.4499512-1-1 0-.5599976.4500122-1 1-1 1.4799805 0 2.6799927-1.2099609 2.6799927-2.6799927 0-.5499878.4500122-1 1-1s1 .4500122 1 1c-.0000001 2.5800171-2.0999756 4.6799927-4.6799927 4.6799927z"/><path d="m18.6981201 12.3074341c-2.8693237 0-5.1954346 2.3260498-5.1954346 5.1954346-2.8693848 0-5.1954346 2.3260498-5.1954346 5.1954346 0 .8838501.241333 1.7033691.6306763 2.4320068-2.0006713.722351-3.4390258 2.619873-3.4390258 4.8696899s1.4383545 4.1473389 3.4390259 4.8696899c-.3893433.7286377-.6306763 1.5481568-.6306763 2.4320069 0 2.8693848 2.3260498 5.1954346 5.1954346 5.1954346 0 2.8693848 2.3261108 5.1954346 5.1954346 5.1954346 2.8693848 0 5.1954346-2.3260498 5.1954346-5.1954346v-3.755249c-.7649536.5455322-1.6943359.8743286-2.7036133.8743286-.5527344 0-1-.4472656-1-1s.4472656-1 1-1c1.4755859 0 2.6767578-1.2001953 2.6767578-2.6757813 0-.0472412.0205078-.0877075.0268555-.1331787v-9.1985474c-.0063477-.0454712-.0268555-.0858765-.0268555-.1331177 0-1.4755859-1.2011719-2.6767578-2.6767578-2.6767578-.5527344 0-1-.4472656-1-1s.4472656-1 1-1c1.0092773 0 1.9386597.3287964 2.7036133.8743896v-4.1703491c-.0000001-2.8693847-2.3260499-5.1954345-5.1954347-5.1954345zm.2232666 18.4376831c-2.578125 0-4.6757813-2.0976563-4.6757813-4.6767578 0-.5527344.4472656-1 1-1s1 .4472656 1 1c0 1.4755859 1.2001953 2.6767578 2.6757813 2.6767578.5527344 0 1 .4472656 1 1s-.4472656 1-1 1z"/><path d="m44.7825928 18.4000244c-.1699829-.3400269-.5199585-.5499878-.8899536-.5499878-.3800049 0-.7300415.2099609-.9000244.5499878l-9.6199951 19.2299805c-.1599731.3099976-.1400146.6799927.039978.9800415.1799927.289978.5100098.4699707.8500366.4699707h19.2399902c.3399658 0 .6599731-.1799927.8499756-.4699707.1799927-.3000488.2000122-.6700439.0400391-.9800415zm.1000366 17.4299927h-2v-1.6400146h2zm0-3.1099854h-2v-7.5700073h2z"/></svg>