<svg fill="#FFFFFF" id="svg1144" height="512" viewBox="0 0 8.4666667 8.4666667" width="512" xmlns="http://www.w3.org/2000/svg" xmlns:svg="http://www.w3.org/2000/svg"><g id="layer2"><path id="path2106" d="m4.7631937.0000004c-.4986401 0-.906032.33923599-1.0250929.79271597h-3.47021912c-.35298 0-.35298.52968403 0 .52968403h3.46970212c.1183508.454523.5303607.794783 1.0256099.794783.4952378 0 .9083789-.34026 1.0271599-.794783h2.411526c.3530499 0 .3530499-.52968403 0-.52968403h-2.412043c-.119511-.45347998-.5280139-.79271597-1.0266429-.79271597zm-2.645183 3.1760329c-.49938 0-.906819.3386299-1.02561.7927171h-.82762102c-.35304 0-.35304.5291659 0 .5291659h.82710402c.120732.4583771.533899.7932341 1.026127.7932341.492227 0 .9022469-.3307692 1.0240579-.7932341h5.059811c.3529801 0 .3529801-.5291659 0-.5291659h-5.059294c-.1187799-.4540872-.5251949-.7927171-1.0245749-.7927171zm2.645183 3.1734501c-.502131 0-.9058852.3402389-1.0245759.794267h-3.47073612c-.35298 0-.35298.5291659 0 .5291659h3.47073612c.1187299.4539631.5286967.79375 1.0245759.79375.4958678 0 .9079889-.3397869 1.0271599-.79375h2.411526c.3530499 0 .3530499-.5291659 0-.5291659h-2.411526c-.119121-.4540281-.52504-.794267-1.0271599-.794267z" font-variant-ligatures="normal" font-variant-position="normal" font-variant-caps="normal" font-variant-numeric="normal" font-variant-alternates="normal" font-feature-settings="normal" text-indent="0" text-align="start" text-decoration-line="none" text-decoration-style="solid" text-decoration-color="rgb(0,0,0)" text-transform="none" text-orientation="mixed" white-space="normal" shape-padding="0" isolation="auto" mix-blend-mode="normal" solid-color="rgb(0,0,0)" solid-opacity="1" vector-effect="none"/></g></svg>