<?xml version="1.0" encoding="UTF-8"?>
<svg fill="#FFFFFF" id="Layer_1" xmlns="http://www.w3.org/2000/svg" version="1.1" viewBox="0 0 512 387.8">
  <!-- Generator: Adobe Illustrator 30.2.1, SVG Export Plug-In . SVG Version: 2.1.1 Build 1)  -->
  <defs>
    <style>
      .st0 {
        fill-rule: evenodd;
      }
    </style>
  </defs>
  <path class="st0" d="M246,288.1c-2.6-2.6-2.5-6.8,0-9.4,2.6-2.6,6.8-2.5,9.4,0l35.5,36h10c3.7,0,6.7,3,6.7,6.7s-3,6.7-6.7,6.7h-12.8c-1.7,0-3.4-.7-4.7-2l-37.5-37.9ZM151.9,197.9l-107.4,51.4c.3.6.7,1.2,1,1.8h0c16.5,28.6,43,47.8,72.6,55.7,29.6,7.9,62.1,4.6,90.7-11.9h0c28.6-16.5,47.8-43,55.7-72.6,7.9-29.4,4.6-61.8-11.7-90.3-.2-.3-.4-.6-.5-1-16.5-28.3-42.9-47.3-72.3-55.1-9-2.4-18.3-3.8-27.6-4l3.8,119.3c0,3-1.7,5.7-4.3,6.8h0ZM38.4,236.5c-9.2-22.4-11-46.5-6.4-69.2l96.7,25.9-90.3,43.3ZM35.7,153.6c8.9-26.6,27.1-50.3,53.2-65.5.3-.2.6-.3.9-.6,15.3-8.7,31.8-13.7,48.3-15.2l3.5,109.7-106-28.4ZM300.4,184.7c3.7,0,6.7,3,6.7,6.7s-3,6.7-6.7,6.7h-17c-3.7,0-6.7-3-6.7-6.7s3-6.7,6.7-6.7h17ZM255.1,104.3c-2.6,2.6-6.8,2.7-9.4,0-2.6-2.6-2.7-6.8,0-9.4l37.8-38.3c1.3-1.3,3-2,4.7-2h0s14.6,0,14.6,0c3.7,0,6.7,3,6.7,6.7s-3,6.7-6.7,6.7h-11.9l-35.9,36.3ZM370.3,294.8v53.2h92.1c2.5,0,4.9-1,6.6-2.7s2.7-4,2.7-6.6v-34.6c0-2.5-1-4.9-2.7-6.6-1.7-1.7-4-2.7-6.6-2.7h-92.1ZM357,348v-53.2h-23.6c-2.5,0-4.9,1-6.6,2.7-1.7,1.7-2.7,4-2.7,6.6v34.6c0,2.5,1,4.9,2.7,6.6,1.7,1.7,4,2.7,6.6,2.7h23.6ZM370.3,164.8v53.2h92.1c2.5,0,4.9-1,6.6-2.7s2.7-4,2.7-6.6v-34.6c0-2.5-1-4.9-2.7-6.6s-4-2.7-6.6-2.7h-92.1ZM357,218v-53.2h-23.6c-2.5,0-4.9,1-6.6,2.7-1.7,1.7-2.7,4-2.7,6.6v34.6c0,2.5,1,4.9,2.7,6.6,1.7,1.7,4,2.7,6.6,2.7h23.6ZM370.3,34.7v53.2h92.1c2.5,0,4.9-1,6.6-2.7,1.7-1.7,2.7-4,2.7-6.6v-34.6c0-2.5-1-4.9-2.7-6.6-1.7-1.7-4-2.7-6.6-2.7h-92.1ZM357,87.9v-53.2h-23.6c-2.5,0-4.9,1-6.6,2.7-1.7,1.7-2.7,4-2.7,6.6v34.6c0,2.5,1,4.9,2.7,6.6,1.7,1.7,4,2.7,6.6,2.7h23.6Z"/>
</svg>