<svg fill="#FFFFFF" id="Layer_1" viewBox="0 0 64 64" xmlns="http://www.w3.org/2000/svg" data-name="Layer 1"><path d="m45.759 55.85h-28.519c-.552 0-1-.448-1-1v-44.7h-4.15v49.85h33.669z"/><path d="m18.241 9.15v44.699h33.669v-42.164c-2.959-2.943-4.742-4.726-7.693-7.685h-25.976zm28.001 39.587h-14.792c-.552 0-1-.448-1-1s.448-1 1-1h14.792c.552 0 1 .448 1 1s-.448 1-1 1zm0-6.381h-14.792c-.552 0-1-.448-1-1s.448-1 1-1h14.792c.552 0 1 .448 1 1s-.448 1-1 1zm0-6.381h-14.792c-.552 0-1-.448-1-1s.448-1 1-1h14.792c.552 0 1 .448 1 1s-.448 1-1 1zm1-7.381c0 .552-.448 1-1 1h-14.792c-.552 0-1-.448-1-1s.448-1 1-1h14.792c.552 0 1 .448 1 1zm-3.5-18.483c0-.552.448-1 1-1s1 .448 1 1v8.405c0 .552-.448 1-1 1s-1-.448-1-1zm-5.062 2.772c0-.552.448-1 1-1s1 .448 1 1v5.632c0 .552-.448 1-1 1s-1-.448-1-1zm-5.062-.974c0-.552.448-1 1-1s1 .448 1 1v6.606c0 .552-.448 1-1 1s-1-.448-1-1zm-5.062 3.072c0-.552.448-1 1-1s1 .448 1 1v3.534c0 .552-.448 1-1 1s-1-.448-1-1zm-4.146-4.871c0-.552.448-1 1-1s1 .448 1 1v10.44h18.334c.552 0 1 .448 1 1s-.448 1-1 1h-19.334c-.552 0-1-.448-1-1zm-.5 17.483h2.03c.552 0 1 .448 1 1s-.448 1-1 1h-2.03c-.552 0-1-.448-1-1s.448-1 1-1zm0 6.381h2.03c.552 0 1 .448 1 1s-.448 1-1 1h-2.03c-.552 0-1-.448-1-1s.448-1 1-1zm0 6.381h2.03c.552 0 1 .448 1 1s-.448 1-1 1h-2.03c-.552 0-1-.448-1-1s.448-1 1-1zm0 6.381h2.03c.552 0 1 .448 1 1s-.448 1-1 1h-2.03c-.552 0-1-.448-1-1s.448-1 1-1z"/></svg>