<svg fill="#FFFFFF" id="Layer_1" viewBox="0 0 512 512" xmlns="http://www.w3.org/2000/svg" data-name="Layer 1"><path d="m8 383.03v-336.906h496v336.906zm341.821-277.52v218.133h48.159v-218.133zm-78.6 84.3v133.833h48.16v-133.832zm-78.6-36.474v170.307h48.16v-170.306zm-78.6 78.847v91.459h48.16v-91.458zm177.239 166.833v34.8q-35.259.032-70.52.045v-34.8q35.26-.006 70.52-.045zm101.081 50.86a8 8 0 0 1 0 16c-90.895 0-181.786-.282-272.682-.031a7.969 7.969 0 1 1 0-15.938c90.964-.251 181.767-.031 272.682-.031zm-352.341-98.846h432v-272.906h-432zm-16 16h464v-304.906h-464z" fill-rule="evenodd"/></svg>